<svg width="324" height="129" viewBox="0 0 324 129" fill="none" xmlns="http://www.w3.org/2000/svg">
<g filter="url(#filter0_i_2_10)">
<path d="M21.3574 90.8789C21.3574 90.2773 21.2643 89.7402 21.0781 89.2676C20.9062 88.7806 20.584 88.3438 20.1113 87.957C19.653 87.556 19.0013 87.1693 18.1562 86.7969C17.3255 86.4102 16.2513 86.0091 14.9336 85.5938C13.4727 85.1354 12.112 84.6198 10.8516 84.0469C9.59115 83.474 8.48112 82.8079 7.52148 82.0488C6.57617 81.2897 5.83854 80.416 5.30859 79.4277C4.77865 78.4251 4.51367 77.265 4.51367 75.9473C4.51367 74.6582 4.78581 73.4837 5.33008 72.4238C5.88867 71.3639 6.67643 70.4544 7.69336 69.6953C8.71029 68.9219 9.90625 68.3275 11.2812 67.9121C12.6706 67.4967 14.2031 67.2891 15.8789 67.2891C18.1992 67.2891 20.2044 67.7116 21.8945 68.5566C23.599 69.4017 24.9167 70.5475 25.8477 71.9941C26.7786 73.4408 27.2441 75.0664 27.2441 76.8711H21.3574C21.3574 75.8971 21.1497 75.0378 20.7344 74.293C20.3333 73.5482 19.7174 72.9609 18.8867 72.5312C18.0703 72.1016 17.0391 71.8867 15.793 71.8867C14.5898 71.8867 13.5872 72.0658 12.7852 72.4238C11.9974 72.7819 11.403 73.2689 11.002 73.8848C10.6152 74.5007 10.4219 75.1882 10.4219 75.9473C10.4219 76.5202 10.5579 77.0358 10.8301 77.4941C11.1022 77.9382 11.5104 78.3607 12.0547 78.7617C12.599 79.1484 13.2721 79.5137 14.0742 79.8574C14.8906 80.1868 15.8359 80.5163 16.9102 80.8457C18.6289 81.3613 20.1328 81.9342 21.4219 82.5645C22.7253 83.1947 23.8066 83.9108 24.666 84.7129C25.5397 85.515 26.1914 86.4173 26.6211 87.4199C27.0651 88.4225 27.2871 89.5612 27.2871 90.8359C27.2871 92.1823 27.0221 93.3854 26.4922 94.4453C25.9622 95.5052 25.2031 96.4076 24.2148 97.1523C23.2266 97.8971 22.0378 98.4629 20.6484 98.8496C19.2734 99.2363 17.7337 99.4297 16.0293 99.4297C14.5111 99.4297 13.0072 99.2292 11.5176 98.8281C10.0423 98.4128 8.70312 97.7969 7.5 96.9805C6.29688 96.1497 5.33724 95.1042 4.62109 93.8438C3.90495 92.569 3.54688 91.0794 3.54688 89.375H9.47656C9.47656 90.3633 9.63411 91.2083 9.94922 91.9102C10.2786 92.5977 10.737 93.1634 11.3242 93.6074C11.9258 94.0371 12.6276 94.3522 13.4297 94.5527C14.2318 94.7533 15.0983 94.8535 16.0293 94.8535C17.2324 94.8535 18.2207 94.6888 18.9941 94.3594C19.7819 94.0156 20.3691 93.543 20.7559 92.9414C21.1569 92.3398 21.3574 91.6523 21.3574 90.8789ZM82.0542 94.3594V99H65.4253V94.3594H82.0542ZM67.23 67.7188V99H61.3218V67.7188H67.23ZM79.8843 80.6309V85.1641H65.4253V80.6309H79.8843ZM81.9898 67.7188V72.3809H65.4253V67.7188H81.9898ZM140.774 67.7188V99H134.845L121.546 77.3008V99H115.638V67.7188H121.546L134.888 89.4395V67.7188H140.774ZM189.096 72.4668L180.18 99H173.928L185.616 67.7188H189.612L189.096 72.4668ZM196.551 99L187.592 72.4668L187.055 67.7188H191.073L202.825 99H196.551ZM196.143 87.377V92.0391H179.364V87.377H196.143ZM259.547 82.8223V95.0039C259.089 95.5911 258.365 96.2285 257.377 96.916C256.403 97.6035 255.128 98.1979 253.553 98.6992C251.977 99.1862 250.044 99.4297 247.752 99.4297C245.761 99.4297 243.942 99.1003 242.295 98.4414C240.648 97.7682 239.23 96.7871 238.041 95.498C236.852 94.209 235.936 92.6335 235.291 90.7715C234.647 88.9095 234.324 86.7826 234.324 84.3906V82.3281C234.324 79.9362 234.625 77.8092 235.227 75.9473C235.843 74.0853 236.716 72.5098 237.848 71.2207C238.994 69.9316 240.361 68.9505 241.951 68.2773C243.555 67.6042 245.346 67.2676 247.322 67.2676C249.972 67.2676 252.149 67.7044 253.854 68.5781C255.572 69.4518 256.89 70.6549 257.807 72.1875C258.723 73.7057 259.296 75.4531 259.525 77.4297H253.768C253.61 76.3411 253.295 75.3887 252.822 74.5723C252.35 73.7415 251.677 73.097 250.803 72.6387C249.943 72.166 248.826 71.9297 247.451 71.9297C246.291 71.9297 245.267 72.1589 244.379 72.6172C243.491 73.0755 242.746 73.7415 242.145 74.6152C241.543 75.4889 241.085 76.5703 240.77 77.8594C240.469 79.1484 240.318 80.6237 240.318 82.2852V84.3906C240.318 86.0664 240.49 87.556 240.834 88.8594C241.178 90.1484 241.672 91.237 242.316 92.125C242.975 92.9987 243.785 93.6647 244.744 94.123C245.718 94.5671 246.821 94.7891 248.053 94.7891C249.17 94.7891 250.094 94.696 250.824 94.5098C251.569 94.3092 252.163 94.0729 252.607 93.8008C253.052 93.5286 253.395 93.2637 253.639 93.0059V87.1406H247.43V82.8223H259.547ZM319.943 82.5645V84.1758C319.943 86.5391 319.628 88.666 318.998 90.5566C318.367 92.4329 317.472 94.0299 316.312 95.3477C315.152 96.6654 313.77 97.6751 312.166 98.377C310.561 99.0788 308.778 99.4297 306.816 99.4297C304.882 99.4297 303.106 99.0788 301.488 98.377C299.884 97.6751 298.494 96.6654 297.32 95.3477C296.145 94.0299 295.236 92.4329 294.591 90.5566C293.947 88.666 293.625 86.5391 293.625 84.1758V82.5645C293.625 80.1868 293.947 78.0599 294.591 76.1836C295.236 74.3073 296.138 72.7103 297.298 71.3926C298.459 70.0605 299.841 69.0436 301.445 68.3418C303.063 67.64 304.839 67.2891 306.773 67.2891C308.735 67.2891 310.518 67.64 312.123 68.3418C313.727 69.0436 315.109 70.0605 316.269 71.3926C317.444 72.7103 318.346 74.3073 318.976 76.1836C319.621 78.0599 319.943 80.1868 319.943 82.5645ZM313.97 84.1758V82.5215C313.97 80.8171 313.813 79.3203 313.498 78.0312C313.183 76.7279 312.717 75.6322 312.101 74.7441C311.485 73.8561 310.726 73.1901 309.824 72.7461C308.921 72.2878 307.905 72.0586 306.773 72.0586C305.627 72.0586 304.61 72.2878 303.722 72.7461C302.849 73.1901 302.104 73.8561 301.488 74.7441C300.872 75.6322 300.399 76.7279 300.07 78.0312C299.755 79.3203 299.597 80.8171 299.597 82.5215V84.1758C299.597 85.8659 299.755 87.3626 300.07 88.666C300.399 89.9694 300.872 91.0723 301.488 91.9746C302.118 92.8626 302.877 93.5358 303.765 93.9941C304.653 94.4525 305.67 94.6816 306.816 94.6816C307.962 94.6816 308.979 94.4525 309.867 93.9941C310.755 93.5358 311.5 92.8626 312.101 91.9746C312.717 91.0723 313.183 89.9694 313.498 88.666C313.813 87.3626 313.97 85.8659 313.97 84.1758Z" fill="#E4E4E4"/>
</g>
<rect width="168.104" height="12.7077" transform="matrix(0.960791 -0.277273 0.708807 0.705402 0 47.8017)" fill="#D9D9D9"/>
<rect width="168.104" height="12.7069" transform="matrix(0.958186 0.286146 -0.72139 0.692529 162.925 0.960648)" fill="#D9D9D9"/>
<path d="M7.32031 116.625H11.0859C11.9401 116.625 12.6615 116.755 13.25 117.016C13.8438 117.276 14.2943 117.661 14.6016 118.172C14.9141 118.677 15.0703 119.299 15.0703 120.039C15.0703 120.56 14.9635 121.036 14.75 121.469C14.5417 121.896 14.2396 122.26 13.8438 122.562C13.4531 122.859 12.9844 123.081 12.4375 123.227L12.0156 123.391H8.47656L8.46094 122.164H11.1328C11.6745 122.164 12.125 122.07 12.4844 121.883C12.8438 121.69 13.1146 121.432 13.2969 121.109C13.4792 120.786 13.5703 120.43 13.5703 120.039C13.5703 119.602 13.4844 119.219 13.3125 118.891C13.1406 118.562 12.8698 118.31 12.5 118.133C12.1354 117.951 11.6641 117.859 11.0859 117.859H8.82812V128H7.32031V116.625ZM13.9688 128L11.2031 122.844L12.7734 122.836L15.5781 127.906V128H13.9688ZM30.8062 126.773V128H24.7828V126.773H30.8062ZM25.0875 116.625V128H23.5797V116.625H25.0875ZM30.0094 121.516V122.742H24.7828V121.516H30.0094ZM30.7281 116.625V117.859H24.7828V116.625H30.7281ZM43.2844 117.633L39.5187 128H37.9797L42.3156 116.625H43.3078L43.2844 117.633ZM46.4406 128L42.6672 117.633L42.6437 116.625H43.6359L47.9875 128H46.4406ZM46.2453 123.789V125.023H39.8547V123.789H46.2453ZM62.8094 126.773V128H57.1219V126.773H62.8094ZM57.4188 116.625V128H55.9109V116.625H57.4188ZM88.5312 126.773V128H82.5078V126.773H88.5312ZM82.8125 116.625V128H81.3047V116.625H82.8125ZM87.7344 121.516V122.742H82.5078V121.516H87.7344ZM88.4531 116.625V117.859H82.5078V116.625H88.4531ZM102.861 125.125C102.861 124.859 102.819 124.625 102.736 124.422C102.658 124.214 102.517 124.026 102.314 123.859C102.116 123.693 101.84 123.534 101.486 123.383C101.137 123.232 100.694 123.078 100.158 122.922C99.5953 122.755 99.0875 122.57 98.6344 122.367C98.1813 122.159 97.7932 121.922 97.4703 121.656C97.1474 121.391 96.9 121.086 96.7281 120.742C96.5563 120.398 96.4703 120.005 96.4703 119.562C96.4703 119.12 96.5615 118.711 96.7438 118.336C96.926 117.961 97.1865 117.635 97.525 117.359C97.8688 117.078 98.2776 116.859 98.7516 116.703C99.2255 116.547 99.7542 116.469 100.338 116.469C101.192 116.469 101.916 116.633 102.509 116.961C103.108 117.284 103.564 117.708 103.877 118.234C104.189 118.755 104.345 119.312 104.345 119.906H102.845C102.845 119.479 102.754 119.102 102.572 118.773C102.39 118.44 102.114 118.18 101.744 117.992C101.374 117.799 100.905 117.703 100.338 117.703C99.801 117.703 99.3583 117.784 99.0094 117.945C98.6604 118.107 98.4 118.326 98.2281 118.602C98.0615 118.878 97.9781 119.193 97.9781 119.547C97.9781 119.786 98.0276 120.005 98.1266 120.203C98.2307 120.396 98.3896 120.576 98.6031 120.742C98.8219 120.909 99.0979 121.062 99.4313 121.203C99.7698 121.344 100.173 121.479 100.642 121.609C101.288 121.792 101.845 121.995 102.314 122.219C102.783 122.443 103.168 122.695 103.47 122.977C103.778 123.253 104.004 123.568 104.15 123.922C104.301 124.271 104.377 124.667 104.377 125.109C104.377 125.573 104.283 125.992 104.095 126.367C103.908 126.742 103.64 127.062 103.291 127.328C102.942 127.594 102.522 127.799 102.033 127.945C101.548 128.086 101.007 128.156 100.408 128.156C99.8818 128.156 99.3635 128.083 98.8531 127.938C98.3479 127.792 97.887 127.573 97.4703 127.281C97.0589 126.99 96.7281 126.63 96.4781 126.203C96.2333 125.771 96.1109 125.271 96.1109 124.703H97.6109C97.6109 125.094 97.6865 125.43 97.8375 125.711C97.9885 125.987 98.1943 126.216 98.4547 126.398C98.7203 126.581 99.0198 126.716 99.3531 126.805C99.6917 126.888 100.043 126.93 100.408 126.93C100.934 126.93 101.379 126.857 101.744 126.711C102.108 126.565 102.384 126.357 102.572 126.086C102.765 125.815 102.861 125.495 102.861 125.125ZM116.902 116.625V128H115.417V116.625H116.902ZM120.558 116.625V117.859H111.769V116.625H120.558ZM132.231 117.633L128.466 128H126.927L131.262 116.625H132.255L132.231 117.633ZM135.387 128L131.614 117.633L131.591 116.625H132.583L136.934 128H135.387ZM135.192 123.789V125.023H128.802V123.789H135.192ZM148.045 116.625V128H146.561V116.625H148.045ZM151.702 116.625V117.859H142.913V116.625H151.702ZM167.016 126.773V128H160.992V126.773H167.016ZM161.297 116.625V128H159.789V116.625H161.297ZM166.219 121.516V122.742H160.992V121.516H166.219ZM166.938 116.625V117.859H160.992V116.625H166.938ZM187.269 116.625V128H185.761V116.625H187.269ZM205.161 116.625V128H203.645L197.919 119.227V128H196.411V116.625H197.919L203.669 125.422V116.625H205.161ZM217.905 126.273L221.256 116.625H222.889L218.678 128H217.514L217.905 126.273ZM214.772 116.625L218.092 126.273L218.506 128H217.342L213.139 116.625H214.772ZM238.047 126.773V128H232.023V126.773H238.047ZM232.328 116.625V128H230.82V116.625H232.328ZM237.25 121.516V122.742H232.023V121.516H237.25ZM237.969 116.625V117.859H232.023V116.625H237.969ZM252.377 125.125C252.377 124.859 252.335 124.625 252.252 124.422C252.173 124.214 252.033 124.026 251.83 123.859C251.632 123.693 251.356 123.534 251.002 123.383C250.653 123.232 250.21 123.078 249.673 122.922C249.111 122.755 248.603 122.57 248.15 122.367C247.697 122.159 247.309 121.922 246.986 121.656C246.663 121.391 246.416 121.086 246.244 120.742C246.072 120.398 245.986 120.005 245.986 119.562C245.986 119.12 246.077 118.711 246.259 118.336C246.442 117.961 246.702 117.635 247.041 117.359C247.384 117.078 247.793 116.859 248.267 116.703C248.741 116.547 249.27 116.469 249.853 116.469C250.707 116.469 251.431 116.633 252.025 116.961C252.624 117.284 253.08 117.708 253.392 118.234C253.705 118.755 253.861 119.312 253.861 119.906H252.361C252.361 119.479 252.27 119.102 252.087 118.773C251.905 118.44 251.629 118.18 251.259 117.992C250.89 117.799 250.421 117.703 249.853 117.703C249.317 117.703 248.874 117.784 248.525 117.945C248.176 118.107 247.916 118.326 247.744 118.602C247.577 118.878 247.494 119.193 247.494 119.547C247.494 119.786 247.543 120.005 247.642 120.203C247.746 120.396 247.905 120.576 248.119 120.742C248.337 120.909 248.614 121.062 248.947 121.203C249.285 121.344 249.689 121.479 250.158 121.609C250.804 121.792 251.361 121.995 251.83 122.219C252.298 122.443 252.684 122.695 252.986 122.977C253.293 123.253 253.52 123.568 253.666 123.922C253.817 124.271 253.892 124.667 253.892 125.109C253.892 125.573 253.798 125.992 253.611 126.367C253.423 126.742 253.155 127.062 252.806 127.328C252.457 127.594 252.038 127.799 251.548 127.945C251.064 128.086 250.522 128.156 249.923 128.156C249.397 128.156 248.879 128.083 248.369 127.938C247.864 127.792 247.403 127.573 246.986 127.281C246.574 126.99 246.244 126.63 245.994 126.203C245.749 125.771 245.627 125.271 245.627 124.703H247.127C247.127 125.094 247.202 125.43 247.353 125.711C247.504 125.987 247.71 126.216 247.97 126.398C248.236 126.581 248.535 126.716 248.869 126.805C249.207 126.888 249.559 126.93 249.923 126.93C250.449 126.93 250.895 126.857 251.259 126.711C251.624 126.565 251.9 126.357 252.087 126.086C252.28 125.815 252.377 125.495 252.377 125.125ZM266.417 116.625V128H264.933V116.625H266.417ZM270.073 116.625V117.859H261.284V116.625H270.073ZM279.778 116.625V128H278.27V116.625H279.778ZM297.67 116.625V128H296.155L290.428 119.227V128H288.92V116.625H290.428L296.178 125.422V116.625H297.67ZM315.148 122.336V126.5C315.008 126.708 314.784 126.943 314.477 127.203C314.169 127.458 313.745 127.682 313.203 127.875C312.667 128.062 311.974 128.156 311.125 128.156C310.432 128.156 309.794 128.036 309.211 127.797C308.633 127.552 308.13 127.198 307.703 126.734C307.281 126.266 306.953 125.698 306.719 125.031C306.49 124.359 306.375 123.599 306.375 122.75V121.867C306.375 121.018 306.474 120.26 306.672 119.594C306.875 118.927 307.172 118.362 307.562 117.898C307.953 117.43 308.432 117.076 309 116.836C309.568 116.591 310.219 116.469 310.953 116.469C311.823 116.469 312.549 116.62 313.133 116.922C313.721 117.219 314.18 117.63 314.508 118.156C314.841 118.682 315.055 119.281 315.148 119.953H313.641C313.573 119.542 313.438 119.167 313.234 118.828C313.036 118.49 312.753 118.219 312.383 118.016C312.013 117.807 311.536 117.703 310.953 117.703C310.427 117.703 309.971 117.799 309.586 117.992C309.201 118.185 308.883 118.461 308.633 118.82C308.383 119.18 308.195 119.615 308.07 120.125C307.951 120.635 307.891 121.211 307.891 121.852V122.75C307.891 123.406 307.966 123.992 308.117 124.508C308.273 125.023 308.495 125.464 308.781 125.828C309.068 126.188 309.409 126.461 309.805 126.648C310.206 126.836 310.648 126.93 311.133 126.93C311.669 126.93 312.104 126.885 312.438 126.797C312.771 126.703 313.031 126.594 313.219 126.469C313.406 126.339 313.549 126.216 313.648 126.102V123.555H311.016V122.336H315.148Z" fill="black"/>
<defs>
<filter id="filter0_i_2_10" x="3.54688" y="67.2676" width="316.396" height="36.1621" filterUnits="userSpaceOnUse" color-interpolation-filters="sRGB">
<feFlood flood-opacity="0" result="BackgroundImageFix"/>
<feBlend mode="normal" in="SourceGraphic" in2="BackgroundImageFix" result="shape"/>
<feColorMatrix in="SourceAlpha" type="matrix" values="0 0 0 0 0 0 0 0 0 0 0 0 0 0 0 0 0 0 127 0" result="hardAlpha"/>
<feOffset dy="4"/>
<feGaussianBlur stdDeviation="2"/>
<feComposite in2="hardAlpha" operator="arithmetic" k2="-1" k3="1"/>
<feColorMatrix type="matrix" values="0 0 0 0 0 0 0 0 0 0 0 0 0 0 0 0 0 0 0.25 0"/>
<feBlend mode="normal" in2="shape" result="effect1_innerShadow_2_10"/>
</filter>
</defs>
</svg>
