<svg width="237" height="79" viewBox="0 0 237 79" fill="none" xmlns="http://www.w3.org/2000/svg">
<g filter="url(#filter0_i_2_10)">
<path d="M16.0781 72.0938C16.0781 71.6562 16.0104 71.2656 15.875 70.9219C15.75 70.5677 15.5156 70.25 15.1719 69.9688C14.8385 69.6771 14.3646 69.3958 13.75 69.125C13.1458 68.8438 12.3646 68.5521 11.4062 68.25C10.3438 67.9167 9.35417 67.5417 8.4375 67.125C7.52083 66.7083 6.71354 66.224 6.01562 65.6719C5.32812 65.1198 4.79167 64.4844 4.40625 63.7656C4.02083 63.0365 3.82812 62.1927 3.82812 61.2344C3.82812 60.2969 4.02604 59.4427 4.42188 58.6719C4.82812 57.901 5.40104 57.2396 6.14062 56.6875C6.88021 56.125 7.75 55.6927 8.75 55.3906C9.76042 55.0885 10.875 54.9375 12.0938 54.9375C13.7812 54.9375 15.2396 55.2448 16.4688 55.8594C17.7083 56.474 18.6667 57.3073 19.3438 58.3594C20.0208 59.4115 20.3594 60.5938 20.3594 61.9062H16.0781C16.0781 61.1979 15.9271 60.5729 15.625 60.0312C15.3333 59.4896 14.8854 59.0625 14.2812 58.75C13.6875 58.4375 12.9375 58.2812 12.0312 58.2812C11.1562 58.2812 10.4271 58.4115 9.84375 58.6719C9.27083 58.9323 8.83854 59.2865 8.54688 59.7344C8.26562 60.1823 8.125 60.6823 8.125 61.2344C8.125 61.651 8.22396 62.026 8.42188 62.3594C8.61979 62.6823 8.91667 62.9896 9.3125 63.2812C9.70833 63.5625 10.1979 63.8281 10.7812 64.0781C11.375 64.3177 12.0625 64.5573 12.8438 64.7969C14.0938 65.1719 15.1875 65.5885 16.125 66.0469C17.0729 66.5052 17.8594 67.026 18.4844 67.6094C19.1198 68.1927 19.5938 68.849 19.9062 69.5781C20.2292 70.3073 20.3906 71.1354 20.3906 72.0625C20.3906 73.0417 20.1979 73.9167 19.8125 74.6875C19.4271 75.4583 18.875 76.1146 18.1562 76.6562C17.4375 77.1979 16.5729 77.6094 15.5625 77.8906C14.5625 78.1719 13.4427 78.3125 12.2031 78.3125C11.099 78.3125 10.0052 78.1667 8.92188 77.875C7.84896 77.5729 6.875 77.125 6 76.5312C5.125 75.9271 4.42708 75.1667 3.90625 74.25C3.38542 73.3229 3.125 72.2396 3.125 71H7.4375C7.4375 71.7188 7.55208 72.3333 7.78125 72.8438C8.02083 73.3438 8.35417 73.7552 8.78125 74.0781C9.21875 74.3906 9.72917 74.6198 10.3125 74.7656C10.8958 74.9115 11.526 74.9844 12.2031 74.9844C13.0781 74.9844 13.7969 74.8646 14.3594 74.625C14.9323 74.375 15.3594 74.0312 15.6406 73.5938C15.9323 73.1562 16.0781 72.6562 16.0781 72.0938ZM60.2213 74.625V78H48.1275V74.625H60.2213ZM49.44 55.25V78H45.1431V55.25H49.44ZM58.6431 64.6406V67.9375H48.1275V64.6406H58.6431ZM60.1744 55.25V58.6406H48.1275V55.25H60.1744ZM102.927 55.25V78H98.6144L88.9425 62.2188V78H84.6456V55.25H88.9425L98.6456 71.0469V55.25H102.927ZM138.07 58.7031L131.586 78H127.039L135.539 55.25H138.445L138.07 58.7031ZM143.492 78L136.976 58.7031L136.586 55.25H139.507L148.054 78H143.492ZM143.195 69.5469V72.9375H130.992V69.5469H143.195ZM189.307 66.2344V75.0938C188.974 75.5208 188.448 75.9844 187.729 76.4844C187.02 76.9844 186.093 77.4167 184.948 77.7812C183.802 78.1354 182.395 78.3125 180.729 78.3125C179.281 78.3125 177.958 78.0729 176.76 77.5938C175.562 77.1042 174.531 76.3906 173.666 75.4531C172.802 74.5156 172.135 73.3698 171.666 72.0156C171.198 70.6615 170.963 69.1146 170.963 67.375V65.875C170.963 64.1354 171.182 62.5885 171.619 61.2344C172.067 59.8802 172.703 58.7344 173.526 57.7969C174.359 56.8594 175.354 56.1458 176.51 55.6562C177.677 55.1667 178.979 54.9219 180.416 54.9219C182.343 54.9219 183.927 55.2396 185.166 55.875C186.416 56.5104 187.375 57.3854 188.041 58.5C188.708 59.6042 189.125 60.875 189.291 62.3125H185.104C184.989 61.5208 184.76 60.8281 184.416 60.2344C184.073 59.6302 183.583 59.1615 182.948 58.8281C182.323 58.4844 181.51 58.3125 180.51 58.3125C179.666 58.3125 178.921 58.4792 178.276 58.8125C177.63 59.1458 177.088 59.6302 176.651 60.2656C176.213 60.901 175.88 61.6875 175.651 62.625C175.432 63.5625 175.323 64.6354 175.323 65.8438V67.375C175.323 68.5938 175.448 69.6771 175.698 70.625C175.948 71.5625 176.307 72.3542 176.776 73C177.255 73.6354 177.843 74.1198 178.541 74.4531C179.25 74.776 180.052 74.9375 180.948 74.9375C181.76 74.9375 182.432 74.8698 182.963 74.7344C183.505 74.5885 183.937 74.4167 184.26 74.2188C184.583 74.0208 184.833 73.8281 185.01 73.6406V69.375H180.494V66.2344H189.307ZM233.231 66.0469V67.2188C233.231 68.9375 233.002 70.4844 232.544 71.8594C232.085 73.224 231.434 74.3854 230.591 75.3438C229.747 76.3021 228.742 77.0365 227.575 77.5469C226.408 78.0573 225.111 78.3125 223.684 78.3125C222.278 78.3125 220.986 78.0573 219.809 77.5469C218.643 77.0365 217.632 76.3021 216.778 75.3438C215.924 74.3854 215.262 73.224 214.794 71.8594C214.325 70.4844 214.091 68.9375 214.091 67.2188V66.0469C214.091 64.3177 214.325 62.7708 214.794 61.4062C215.262 60.0417 215.919 58.8802 216.762 57.9219C217.606 56.9531 218.611 56.2135 219.778 55.7031C220.955 55.1927 222.247 54.9375 223.653 54.9375C225.08 54.9375 226.377 55.1927 227.544 55.7031C228.71 56.2135 229.716 56.9531 230.559 57.9219C231.414 58.8802 232.07 60.0417 232.528 61.4062C232.997 62.7708 233.231 64.3177 233.231 66.0469ZM228.887 67.2188V66.0156C228.887 64.776 228.773 63.6875 228.544 62.75C228.315 61.8021 227.976 61.0052 227.528 60.3594C227.08 59.7135 226.528 59.2292 225.872 58.9062C225.216 58.5729 224.476 58.4062 223.653 58.4062C222.82 58.4062 222.08 58.5729 221.434 58.9062C220.799 59.2292 220.257 59.7135 219.809 60.3594C219.361 61.0052 219.018 61.8021 218.778 62.75C218.549 63.6875 218.434 64.776 218.434 66.0156V67.2188C218.434 68.4479 218.549 69.5365 218.778 70.4844C219.018 71.4323 219.361 72.2344 219.809 72.8906C220.268 73.5365 220.82 74.026 221.466 74.3594C222.111 74.6927 222.851 74.8594 223.684 74.8594C224.518 74.8594 225.257 74.6927 225.903 74.3594C226.549 74.026 227.091 73.5365 227.528 72.8906C227.976 72.2344 228.315 71.4323 228.544 70.4844C228.773 69.5365 228.887 68.4479 228.887 67.2188Z" fill="#E4E4E4"/>
</g>
<rect width="123" height="9.21" transform="matrix(0.960791 -0.277273 0.708807 0.705402 0.561974 34.9484)" fill="#D9D9D9"/>
<rect width="123" height="9.20943" transform="matrix(0.958186 0.286146 -0.72139 0.692529 118.644 1)" fill="#D9D9D9"/>
<defs>
<filter id="filter0_i_2_10" x="3.125" y="54.9219" width="230.106" height="27.3906" filterUnits="userSpaceOnUse" color-interpolation-filters="sRGB">
<feFlood flood-opacity="0" result="BackgroundImageFix"/>
<feBlend mode="normal" in="SourceGraphic" in2="BackgroundImageFix" result="shape"/>
<feColorMatrix in="SourceAlpha" type="matrix" values="0 0 0 0 0 0 0 0 0 0 0 0 0 0 0 0 0 0 127 0" result="hardAlpha"/>
<feOffset dy="4"/>
<feGaussianBlur stdDeviation="2"/>
<feComposite in2="hardAlpha" operator="arithmetic" k2="-1" k3="1"/>
<feColorMatrix type="matrix" values="0 0 0 0 0 0 0 0 0 0 0 0 0 0 0 0 0 0 0.25 0"/>
<feBlend mode="normal" in2="shape" result="effect1_innerShadow_2_10"/>
</filter>
</defs>
</svg>
