<?xml version="1.0" encoding="UTF-8" standalone="no"?>
<svg
   xmlns:dc="http://purl.org/dc/elements/1.1/"
   xmlns:cc="http://creativecommons.org/ns#"
   xmlns:rdf="http://www.w3.org/1999/02/22-rdf-syntax-ns#"
   xmlns:svg="http://www.w3.org/2000/svg"
   xmlns="http://www.w3.org/2000/svg"
   xmlns:sodipodi="http://sodipodi.sourceforge.net/DTD/sodipodi-0.dtd"
   xmlns:inkscape="http://www.inkscape.org/namespaces/inkscape"
   width="392.6604"
   height="77.477127"
   viewBox="0 0 392.66039 77.477127"
   version="1.1"
   id="svg31"
   sodipodi:docname="navbar-logo.svg"
   style="fill:none"
   inkscape:version="0.92.1 r15371">
  <metadata
     id="metadata35">
    <rdf:RDF>
      <cc:Work
         rdf:about="">
        <dc:format>image/svg+xml</dc:format>
        <dc:type
           rdf:resource="http://purl.org/dc/dcmitype/StillImage" />
        <dc:title></dc:title>
      </cc:Work>
    </rdf:RDF>
  </metadata>
  <sodipodi:namedview
     pagecolor="#ffffff"
     bordercolor="#666666"
     borderopacity="1"
     objecttolerance="10"
     gridtolerance="10"
     guidetolerance="10"
     inkscape:pageopacity="0"
     inkscape:pageshadow="2"
     inkscape:window-width="1366"
     inkscape:window-height="705"
     id="namedview33"
     showgrid="false"
     inkscape:zoom="1.4541667"
     inkscape:cx="194.10261"
     inkscape:cy="86.251883"
     inkscape:window-x="-8"
     inkscape:window-y="-8"
     inkscape:window-maximized="1"
     inkscape:current-layer="svg31" />
  <g
     id="g4"
     transform="matrix(1.70078,0,0,1.7530627,-10.188056,-96.281537)"
     style="filter:url(#filter0_i_2_10)">
    <path
       d="m 19.0781,72.0938 c 0,-0.4376 -0.0677,-0.8282 -0.2031,-1.1719 C 18.75,70.5677 18.5156,70.25 18.1719,69.9688 17.8385,69.6771 17.3646,69.3958 16.75,69.125 16.1458,68.8438 15.3646,68.5521 14.4062,68.25 13.3438,67.9167 12.3542,67.5417 11.4375,67.125 10.5208,66.7083 9.71354,66.224 9.01562,65.6719 8.32812,65.1198 7.79167,64.4844 7.40625,63.7656 7.02083,63.0365 6.82812,62.1927 6.82812,61.2344 c 0,-0.9375 0.19792,-1.7917 0.59376,-2.5625 C 7.82812,57.901 8.40104,57.2396 9.14062,56.6875 9.88021,56.125 10.75,55.6927 11.75,55.3906 c 1.0104,-0.3021 2.125,-0.4531 3.3438,-0.4531 1.6874,0 3.1458,0.3073 4.375,0.9219 1.2395,0.6146 2.1979,1.4479 2.875,2.5 0.677,1.0521 1.0156,2.2344 1.0156,3.5468 h -4.2813 c 0,-0.7083 -0.151,-1.3333 -0.4531,-1.875 -0.2917,-0.5416 -0.7396,-0.9687 -1.3438,-1.2812 -0.5937,-0.3125 -1.3437,-0.4688 -2.25,-0.4688 -0.875,0 -1.6041,0.1303 -2.1874,0.3907 -0.573,0.2604 -1.0053,0.6146 -1.2969,1.0625 -0.2813,0.4479 -0.4219,0.9479 -0.4219,1.5 0,0.4166 0.099,0.7916 0.2969,1.125 0.1979,0.3229 0.4948,0.6302 0.8906,0.9218 0.3958,0.2813 0.8854,0.5469 1.4687,0.7969 0.5938,0.2396 1.2813,0.4792 2.0626,0.7188 1.25,0.375 2.3437,0.7916 3.2812,1.25 0.9479,0.4583 1.7344,0.9791 2.3594,1.5625 0.6354,0.5833 1.1094,1.2396 1.4218,1.9687 0.323,0.7292 0.4844,1.5573 0.4844,2.4844 0,0.9792 -0.1927,1.8542 -0.5781,2.625 -0.3854,0.7708 -0.9375,1.4271 -1.6563,1.9687 -0.7187,0.5417 -1.5833,0.9532 -2.5937,1.2344 -1,0.2813 -2.1198,0.4219 -3.3594,0.4219 -1.1041,0 -2.1979,-0.1458 -3.2812,-0.4375 C 10.849,77.5729 9.875,77.125 9,76.5312 8.125,75.9271 7.42708,75.1667 6.90625,74.25 6.38542,73.3229 6.125,72.2396 6.125,71 h 4.3125 c 0,0.7188 0.1146,1.3333 0.3437,1.8438 0.2396,0.5 0.573,0.9114 1,1.2343 0.4376,0.3125 0.948,0.5417 1.5313,0.6875 0.5833,0.1459 1.2135,0.2188 1.8906,0.2188 0.875,0 1.5938,-0.1198 2.1563,-0.3594 0.5729,-0.25 1,-0.5938 1.2812,-1.0312 0.2917,-0.4376 0.4375,-0.9376 0.4375,-1.5 z M 63.2213,74.625 V 78 H 51.1275 V 74.625 Z M 52.44,55.25 V 78 H 48.1431 V 55.25 Z m 9.2031,9.3906 v 3.2969 H 51.1275 V 64.6406 Z M 63.1744,55.25 v 3.3906 H 51.1275 V 55.25 Z m 42.7526,0 V 78 h -4.313 L 91.9425,62.2188 V 78 H 87.6456 V 55.25 h 4.2969 l 9.7035,15.7969 V 55.25 Z M 141.07,58.7031 134.586,78 h -4.547 l 8.5,-22.75 h 2.906 z M 146.492,78 139.976,58.7031 139.586,55.25 h 2.921 L 151.054,78 Z m -0.297,-8.4531 v 3.3906 h -12.203 v -3.3906 z m 46.112,-3.3125 v 8.8594 c -0.333,0.427 -0.859,0.8906 -1.578,1.3906 -0.709,0.5 -1.636,0.9323 -2.781,1.2968 -1.146,0.3542 -2.553,0.5313 -4.219,0.5313 -1.448,0 -2.771,-0.2396 -3.969,-0.7187 -1.198,-0.4896 -2.229,-1.2032 -3.094,-2.1407 -0.864,-0.9375 -1.531,-2.0833 -2,-3.4375 -0.468,-1.3541 -0.703,-2.901 -0.703,-4.6406 v -1.5 c 0,-1.7396 0.219,-3.2865 0.656,-4.6406 0.448,-1.3542 1.084,-2.5 1.907,-3.4375 0.833,-0.9375 1.828,-1.6511 2.984,-2.1407 1.167,-0.4895 2.469,-0.7343 3.906,-0.7343 1.927,0 3.511,0.3177 4.75,0.9531 1.25,0.6354 2.209,1.5104 2.875,2.625 0.667,1.1042 1.084,2.375 1.25,3.8125 h -4.187 c -0.115,-0.7917 -0.344,-1.4844 -0.688,-2.0781 -0.343,-0.6042 -0.833,-1.0729 -1.468,-1.4063 -0.625,-0.3437 -1.438,-0.5156 -2.438,-0.5156 -0.844,0 -1.589,0.1667 -2.234,0.5 -0.646,0.3333 -1.188,0.8177 -1.625,1.4531 -0.438,0.6354 -0.771,1.4219 -1,2.3594 -0.219,0.9375 -0.328,2.0104 -0.328,3.2188 v 1.5312 c 0,1.2188 0.125,2.3021 0.375,3.25 0.25,0.9375 0.609,1.7292 1.078,2.375 0.479,0.6354 1.067,1.1198 1.765,1.4531 0.709,0.3229 1.511,0.4844 2.407,0.4844 0.812,0 1.484,-0.0677 2.015,-0.2031 0.542,-0.1459 0.974,-0.3177 1.297,-0.5156 0.323,-0.198 0.573,-0.3907 0.75,-0.5782 V 69.375 h -4.516 v -3.1406 z m 43.924,-0.1875 v 1.1719 c 0,1.7187 -0.229,3.2656 -0.687,4.6406 -0.459,1.3646 -1.11,2.526 -1.953,3.4844 -0.844,0.9583 -1.849,1.6927 -3.016,2.2031 -1.167,0.5104 -2.464,0.7656 -3.891,0.7656 -1.406,0 -2.698,-0.2552 -3.875,-0.7656 -1.166,-0.5104 -2.177,-1.2448 -3.031,-2.2031 -0.854,-0.9584 -1.516,-2.1198 -1.984,-3.4844 -0.469,-1.375 -0.703,-2.9219 -0.703,-4.6406 v -1.1719 c 0,-1.7292 0.234,-3.2761 0.703,-4.6407 0.468,-1.3645 1.125,-2.526 1.968,-3.4843 0.844,-0.9688 1.849,-1.7084 3.016,-2.2188 1.177,-0.5104 2.469,-0.7656 3.875,-0.7656 1.427,0 2.724,0.2552 3.891,0.7656 1.166,0.5104 2.172,1.25 3.015,2.2188 0.855,0.9583 1.511,2.1198 1.969,3.4843 0.469,1.3646 0.703,2.9115 0.703,4.6407 z m -4.344,1.1719 v -1.2032 c 0,-1.2396 -0.114,-2.3281 -0.343,-3.2656 -0.229,-0.9479 -0.568,-1.7448 -1.016,-2.3906 -0.448,-0.6459 -1,-1.1302 -1.656,-1.4532 -0.656,-0.3333 -1.396,-0.5 -2.219,-0.5 -0.833,0 -1.573,0.1667 -2.219,0.5 -0.635,0.323 -1.177,0.8073 -1.625,1.4532 -0.448,0.6458 -0.791,1.4427 -1.031,2.3906 -0.229,0.9375 -0.344,2.026 -0.344,3.2656 v 1.2032 c 0,1.2291 0.115,2.3177 0.344,3.2656 0.24,0.9479 0.583,1.75 1.031,2.4062 0.459,0.6459 1.011,1.1354 1.657,1.4688 0.645,0.3333 1.385,0.5 2.218,0.5 0.834,0 1.573,-0.1667 2.219,-0.5 0.646,-0.3334 1.188,-0.8229 1.625,-1.4688 0.448,-0.6562 0.787,-1.4583 1.016,-2.4062 0.229,-0.9479 0.343,-2.0365 0.343,-3.2656 z"
       id="path2"
       inkscape:connector-curvature="0"
       style="fill:#e4e4e4" />
  </g>
  <path
     d="m 7e-6,62.315931 h 4.8033769 c 1.089571,0 2.00971,0.17111 2.760452,0.51348 0.757357,0.34237 1.33205,0.84918 1.72408,1.52026 0.398493,0.66424 0.597824,1.48257 0.597824,2.45498 0,0.68476 -0.136062,1.3113 -0.408527,1.87982 -0.265832,0.5615 -0.651059,1.04079 -1.15602,1.43803 -0.498329,0.39023 -1.096153,0.68124 -1.793778,0.87303 l -0.538127,0.21581 h -4.514381 l -0.01994,-1.61282 h 3.40821 c 0.690942,0 1.265619,-0.1232 1.724029,-0.36973 0.458395,-0.25331 0.803824,-0.59235 1.03649,-1.01695 0.232496,-0.42458 0.348661,-0.89353 0.348661,-1.40719 0,-0.57517 -0.109537,-1.07848 -0.328761,-1.5099 -0.219231,-0.43143 -0.564829,-0.76364 -1.036456,-0.99645 -0.465061,-0.23964 -1.066304,-0.35955 -1.803763,-0.35955 h -2.880033 v 13.33293 H 0 Z m 8.4807199,14.95575 -3.52786,-6.77945 2.003109,-0.0103 3.5775921,6.66637 v 0.1232 z m 21.4776191,-1.61265 v 1.61265 h -7.683443 v -1.61265 z m -7.294815,-13.3431 v 14.95575 h -1.923243 v -14.95575 z m 6.278259,6.43007 v 1.61264 h -6.666887 v -1.61264 z m 0.91689,-6.43007 v 1.62282 h -7.583777 v -1.62282 z m 16.016585,1.32497 -4.803342,13.63078 h -1.963211 l 5.530766,-14.95575 H 45.9052 Z m 4.026087,13.63078 -4.813378,-13.63078 -0.02993,-1.32497 h 1.265718 l 5.550666,14.95575 z m -0.249164,-5.53654 v 1.62299 h -8.151839 v -1.62299 z m 21.12879,3.92389 v 1.61265 h -7.254847 v -1.61265 z m -6.876083,-13.3431 v 14.95575 h -1.923413 v -14.95575 z m 39.686515,13.3431 v 1.61265 h -7.683281 v -1.61265 z m -7.294651,-13.3431 v 14.95575 h -1.92341 v -14.95575 z m 6.278261,6.43007 v 1.61264 h -6.666891 v -1.61264 z m 0.91672,-6.43007 v 1.62282 h -7.583611 v -1.62282 z m 18.37846,11.17578 c 0,-0.34938 -0.053,-0.65739 -0.15936,-0.92456 -0.0997,-0.27382 -0.2791,-0.52048 -0.5383,-0.73962 -0.2524,-0.21912 -0.60446,-0.42792 -1.05618,-0.62655 -0.44527,-0.19862 -1.00993,-0.40057 -1.69415,-0.60602 -0.71756,-0.21913 -1.36539,-0.46228 -1.94331,-0.72928 -0.5781,-0.27399 -1.07302,-0.58552 -1.48495,-0.93473 -0.41193,-0.34921 -0.72743,-0.74978 -0.94666,-1.20191 -0.21923,-0.45193 -0.32893,-0.9689 -0.32893,-1.55092 0,-0.58219 0.11633,-1.11968 0.34883,-1.61266 0.2325,-0.49313 0.56466,-0.92104 0.99666,-1.28411 0.43846,-0.36972 0.95992,-0.65739 1.56455,-0.86287 0.60445,-0.20528 1.27881,-0.308 2.0229,-0.308 1.0897,0 2.01305,0.21563 2.77041,0.64705 0.76415,0.42459 1.34531,0.9826 1.74398,1.67436 0.39865,0.68475 0.59799,1.41753 0.59799,2.19817 h -1.91337 c 0,-0.56152 -0.11634,-1.05798 -0.34884,-1.48941 -0.23249,-0.43827 -0.58456,-0.78064 -1.05635,-1.0273 -0.47162,-0.25331 -1.06962,-0.38007 -1.79382,-0.38007 -0.68422,0 -1.24888,0.10619 -1.69414,0.31854 -0.4451,0.21229 -0.77726,0.4998 -0.99649,0.86286 -0.2126,0.36288 -0.3189,0.77714 -0.3189,1.24292 0,0.31486 0.0631,0.60254 0.1893,0.86269 0.13283,0.25349 0.33556,0.48963 0.60786,0.70875 0.2791,0.21914 0.63116,0.42127 1.05635,0.60605 0.43183,0.18495 0.94683,0.36305 1.54465,0.53416 0.82386,0.23982 1.53479,0.5068 2.13261,0.80131 0.59799,0.29434 1.08969,0.62655 1.47491,0.99626 0.39203,0.36307 0.681,0.77731 0.86706,1.24293 0.19271,0.45878 0.28897,0.97927 0.28897,1.56128 0,0.60954 -0.11954,1.16071 -0.35869,1.65385 -0.23914,0.49295 -0.58133,0.91421 -1.02643,1.26342 -0.44509,0.34922 -0.97998,0.61971 -1.60452,0.81149 -0.61789,0.18496 -1.30874,0.27734 -2.07273,0.27734 -0.67113,0 -1.33206,-0.0959 -1.98328,-0.28768 -0.64443,-0.19161 -1.23239,-0.47929 -1.76388,-0.86286 -0.52486,-0.3834 -0.94666,-0.85584 -1.26555,-1.41753 -0.31227,-0.56833 -0.4684,-1.22574 -0.4684,-1.97219 h 1.91338 c 0,0.51364 0.0963,0.95542 0.28896,1.32514 0.1927,0.36288 0.45513,0.66424 0.78729,0.90387 0.3388,0.23965 0.72079,0.41777 1.14599,0.53416 0.432,0.10957 0.88032,0.16445 1.34549,0.16445 0.67096,0 1.23901,-0.0959 1.70401,-0.28768 0.46515,-0.19179 0.81722,-0.46562 1.05635,-0.82166 0.24576,-0.35622 0.36873,-0.77731 0.36873,-1.26344 z m 17.91007,-11.17578 v 14.95575 h -1.89348 v -14.95575 z m 4.66387,0 v 1.62282 h -11.21121 v -1.62282 z m 14.89034,1.32497 -4.80336,13.63078 h -1.9632 l 5.53093,-14.95575 h 1.26556 z m 4.02676,13.63078 -4.81406,-13.63078 -0.0297,-1.32497 h 1.26554 l 5.55118,14.95575 z m -0.25002,-5.53654 v 1.62299 h -8.1515 v -1.62299 z m 16.39551,-9.41921 v 14.95575 h -1.89296 v -14.95575 z m 4.66354,0 v 1.62282 h -11.21154 v -1.62282 z m 19.53516,13.3431 v 1.61265 h -7.68412 v -1.61265 z m -7.29464,-13.3431 v 14.95575 h -1.92359 v -14.95575 z m 6.27758,6.43007 v 1.61264 h -6.66706 v -1.61264 z m 0.91672,-6.43007 v 1.62282 h -7.58378 v -1.62282 z m 25.9352,0 v 14.95575 h -1.92359 v -14.95575 z m 22.82276,0 v 14.95575 h -1.93379 l -7.30485,-11.53533 v 11.53533 h -1.92359 v -14.95575 h 1.92359 l 7.33546,11.56602 v -11.56602 z m 16.25606,12.6857 4.27406,-12.6857 h 2.08345 l -5.37106,14.95575 h -1.48478 z m -3.99683,-12.6857 4.23494,12.6857 0.52893,2.27005 h -1.48478 l -5.36255,-14.95575 z m 29.68881,13.3431 v 1.61265 h -7.68243 v -1.61265 z m -7.29465,-13.3431 v 14.95575 h -1.92358 v -14.95575 z m 6.27928,6.43007 v 1.61264 h -6.66706 v -1.61264 z m 0.91672,-6.43007 v 1.62282 h -7.58378 v -1.62282 z m 18.37693,11.17578 c 0,-0.34938 -0.0527,-0.65739 -0.15818,-0.92456 -0.10032,-0.27382 -0.27892,-0.52048 -0.53914,-0.73962 -0.25171,-0.21912 -0.60378,-0.42792 -1.05618,-0.62655 -0.44561,-0.19862 -1.01026,-0.40057 -1.69398,-0.60602 -0.71773,-0.21913 -1.36573,-0.46228 -1.94229,-0.72928 -0.57827,-0.27399 -1.0732,-0.58552 -1.48648,-0.93473 -0.41159,-0.34921 -0.72624,-0.74978 -0.94563,-1.20191 -0.21941,-0.45193 -0.32996,-0.9689 -0.32996,-1.55092 0,-0.58219 0.11737,-1.11968 0.35037,-1.61266 0.2313,-0.49313 0.56465,-0.92104 0.99494,-1.28411 0.43881,-0.36972 0.96095,-0.65739 1.56473,-0.86287 0.60547,-0.20528 1.27898,-0.308 2.02393,-0.308 1.08849,0 2.01202,0.21563 2.77056,0.64705 0.76365,0.42459 1.34533,0.9826 1.7433,1.67436 0.39969,0.68475 0.59868,1.41753 0.59868,2.19817 h -1.91338 c 0,-0.56152 -0.11737,-1.05798 -0.34866,-1.48941 -0.233,-0.43827 -0.58507,-0.78064 -1.05618,-1.0273 -0.47282,-0.25331 -1.06979,-0.38007 -1.79432,-0.38007 -0.68371,0 -1.25008,0.10619 -1.69399,0.31854 -0.4456,0.21229 -0.77724,0.4998 -0.99665,0.86286 -0.2126,0.36288 -0.31974,0.77714 -0.31974,1.24292 0,0.31486 0.0629,0.60254 0.19049,0.86269 0.13265,0.25349 0.33505,0.48963 0.60717,0.70875 0.27893,0.21914 0.63099,0.42127 1.05619,0.60605 0.43199,0.18495 0.94734,0.36305 1.54431,0.53416 0.82487,0.23982 1.53579,0.5068 2.13277,0.80131 0.59867,0.29434 1.09021,0.62655 1.47458,0.99626 0.39287,0.36307 0.682,0.77731 0.86739,1.24293 0.1939,0.45878 0.28913,0.97927 0.28913,1.56128 0,0.60954 -0.11903,1.16071 -0.35886,1.65385 -0.23811,0.49295 -0.58167,0.91421 -1.02557,1.26342 -0.4456,0.34922 -0.97964,0.61971 -1.60553,0.81149 -0.61739,0.18496 -1.3079,0.27734 -2.07155,0.27734 -0.67181,0 -1.33341,-0.0959 -1.98311,-0.28768 -0.64459,-0.19161 -1.23307,-0.47929 -1.76541,-0.86286 -0.52384,-0.3834 -0.94563,-0.85584 -1.26539,-1.41753 -0.31123,-0.56833 -0.4677,-1.22574 -0.4677,-1.97219 h 1.91337 c 0,0.51364 0.097,0.95542 0.28914,1.32514 0.19218,0.36288 0.45411,0.66424 0.78745,0.90387 0.33845,0.23965 0.72113,0.41777 1.14633,0.53416 0.43029,0.10957 0.8793,0.16445 1.34532,0.16445 0.6701,0 1.23817,-0.0959 1.70418,-0.28768 0.46431,-0.19179 0.81638,-0.46562 1.05618,-0.82166 0.24491,-0.35622 0.36737,-0.77731 0.36737,-1.26344 z m 17.91092,-11.17578 v 14.95575 h -1.89297 v -14.95575 z m 4.66353,0 v 1.62282 h -11.21154 v -1.62282 z m 12.37998,0 v 14.95575 h -1.92359 v -14.95575 z m 22.82277,0 v 14.95575 h -1.93379 l -7.30485,-11.53533 v 11.53533 h -1.92358 v -14.95575 h 1.92358 l 7.33547,11.56602 v -11.56602 z m 22.29382,7.50873 v 5.47481 c -0.17858,0.27384 -0.4643,0.58202 -0.85719,0.92439 -0.39118,0.33572 -0.93203,0.63006 -1.62425,0.88337 -0.68371,0.24666 -1.56811,0.3699 -2.64981,0.3699 -0.8844,0 -1.69738,-0.15759 -2.44232,-0.47245 -0.73643,-0.32187 -1.37763,-0.78765 -1.92358,-1.39702 -0.53745,-0.61637 -0.95583,-1.36282 -1.25518,-2.23935 -0.29253,-0.88337 -0.4388,-1.88315 -0.4388,-2.99933 v -1.16069 c 0,-1.11618 0.12582,-2.11263 0.37927,-2.98915 0.25853,-0.87653 0.6378,-1.61949 1.13612,-2.22902 0.49834,-0.61621 1.10892,-1.08201 1.83344,-1.39685 0.72453,-0.32187 1.55452,-0.48279 2.49165,-0.48279 1.10891,0 2.03583,0.19844 2.78078,0.59568 0.75004,0.39041 1.33511,0.93141 1.7535,1.623 0.42519,0.69158 0.69732,1.47906 0.81637,2.36242 h -1.92358 c -0.0851,-0.54099 -0.25851,-1.03395 -0.51704,-1.47905 -0.25341,-0.4451 -0.61567,-0.80116 -1.0868,-1.06832 -0.47111,-0.27383 -1.07998,-0.41093 -1.82323,-0.41093 -0.67181,0 -1.25177,0.12673 -1.745,0.38007 -0.49152,0.25349 -0.89632,0.61638 -1.21435,1.08884 -0.31976,0.47261 -0.55956,1.04429 -0.71773,1.71555 -0.15308,0.67107 -0.22961,1.42769 -0.22961,2.27003 v 1.18121 c 0,0.86286 0.097,1.63316 0.28913,2.31125 0.19899,0.6779 0.48133,1.25658 0.84699,1.73587 0.36566,0.47246 0.80106,0.83201 1.30619,1.07849 0.51025,0.24665 1.0749,0.3699 1.69399,0.3699 0.68371,0 1.23816,-0.0582 1.66336,-0.17461 0.42519,-0.12335 0.75685,-0.26716 0.99665,-0.43143 0.23982,-0.17127 0.4218,-0.3322 0.54766,-0.4828 v -3.34869 h -3.35735 v -1.6023 z"
     id="path10"
     inkscape:connector-curvature="0"
     style="fill:#ffffff;stroke-width:1.72672343" />
  <defs
     id="defs29">
    <filter
       id="filter0_i_2_10"
       x="6.125"
       y="54.921902"
       width="230.106"
       height="27.3906"
       filterUnits="userSpaceOnUse"
       style="color-interpolation-filters:sRGB">
      <feFlood
         flood-opacity="0"
         result="BackgroundImageFix"
         id="feFlood12" />
      <feBlend
         mode="normal"
         in="SourceGraphic"
         in2="BackgroundImageFix"
         result="shape"
         id="feBlend14" />
      <feColorMatrix
         in="SourceAlpha"
         type="matrix"
         values="0 0 0 0 0 0 0 0 0 0 0 0 0 0 0 0 0 0 127 0"
         result="hardAlpha"
         id="feColorMatrix16" />
      <feOffset
         dy="4"
         id="feOffset18" />
      <feGaussianBlur
         stdDeviation="2"
         id="feGaussianBlur20" />
      <feComposite
         in2="hardAlpha"
         operator="arithmetic"
         k2="-1"
         k3="1"
         id="feComposite22"
         k1="0"
         k4="0" />
      <feColorMatrix
         type="matrix"
         values="0 0 0 0 0 0 0 0 0 0 0 0 0 0 0 0 0 0 0.25 0"
         id="feColorMatrix24" />
      <feBlend
         mode="normal"
         in2="shape"
         result="effect1_innerShadow_2_10"
         id="feBlend26" />
    </filter>
  </defs>
  <rect
     style="opacity:1;fill:#ffffff;fill-opacity:1;stroke:#ffffff;stroke-width:0.521;stroke-miterlimit:4;stroke-dasharray:none;stroke-opacity:1"
     id="rect37"
     width="390.21008"
     height="0.011841509"
     x="1.4290788"
     y="51.431095" />
</svg>
