<svg width="302" height="97" viewBox="0 0 302 97" fill="none" xmlns="http://www.w3.org/2000/svg">
<g filter="url(#filter0_i_2_10)">
<path d="M22.5977 88.6172C22.5977 88.0703 22.513 87.582 22.3438 87.1523C22.1875 86.7096 21.8945 86.3125 21.4648 85.9609C21.0482 85.5964 20.4557 85.2448 19.6875 84.9062C18.9323 84.5547 17.9557 84.1901 16.7578 83.8125C15.4297 83.3958 14.1927 82.9271 13.0469 82.4062C11.901 81.8854 10.8919 81.2799 10.0195 80.5898C9.16016 79.8997 8.48958 79.1055 8.00781 78.207C7.52604 77.2956 7.28516 76.2409 7.28516 75.043C7.28516 73.8711 7.53255 72.8034 8.02734 71.8398C8.53516 70.8763 9.2513 70.0495 10.1758 69.3594C11.1003 68.6562 12.1875 68.1159 13.4375 67.7383C14.7005 67.3607 16.0938 67.1719 17.6172 67.1719C19.7266 67.1719 21.5495 67.556 23.0859 68.3242C24.6354 69.0924 25.8333 70.1341 26.6797 71.4492C27.526 72.7643 27.9492 74.2422 27.9492 75.8828H22.5977C22.5977 74.9974 22.4089 74.2161 22.0312 73.5391C21.6667 72.862 21.1068 72.3281 20.3516 71.9375C19.6094 71.5469 18.6719 71.3516 17.5391 71.3516C16.4453 71.3516 15.5339 71.5143 14.8047 71.8398C14.0885 72.1654 13.5482 72.6081 13.1836 73.168C12.832 73.7279 12.6562 74.3529 12.6562 75.043C12.6562 75.5638 12.7799 76.0326 13.0273 76.4492C13.2747 76.8529 13.6458 77.237 14.1406 77.6016C14.6354 77.9531 15.2474 78.2852 15.9766 78.5977C16.7188 78.8971 17.5781 79.1966 18.5547 79.4961C20.1172 79.9648 21.4844 80.4857 22.6562 81.0586C23.8411 81.6315 24.8242 82.2826 25.6055 83.0117C26.3997 83.7409 26.9922 84.5612 27.3828 85.4727C27.7865 86.3841 27.9883 87.4193 27.9883 88.5781C27.9883 89.8021 27.7474 90.8958 27.2656 91.8594C26.7839 92.8229 26.0938 93.6432 25.1953 94.3203C24.2969 94.9974 23.2161 95.5117 21.9531 95.8633C20.7031 96.2148 19.3034 96.3906 17.7539 96.3906C16.3737 96.3906 15.0065 96.2083 13.6523 95.8438C12.3112 95.4661 11.0938 94.9062 10 94.1641C8.90625 93.4089 8.03385 92.4583 7.38281 91.3125C6.73177 90.1536 6.40625 88.7995 6.40625 87.25H11.7969C11.7969 88.1484 11.9401 88.9167 12.2266 89.5547C12.526 90.1797 12.9427 90.694 13.4766 91.0977C14.0234 91.4883 14.6615 91.7747 15.3906 91.957C16.1198 92.1393 16.9076 92.2305 17.7539 92.2305C18.8477 92.2305 19.7461 92.0807 20.4492 91.7812C21.1654 91.4688 21.6992 91.0391 22.0508 90.4922C22.4154 89.9453 22.5977 89.3203 22.5977 88.6172ZM77.7766 91.7812V96H62.6594V91.7812H77.7766ZM64.3 67.5625V96H58.9289V67.5625H64.3ZM75.8039 79.3008V83.4219H62.6594V79.3008H75.8039ZM77.718 67.5625V71.8008H62.6594V67.5625H77.718ZM131.159 67.5625V96H125.768L113.678 76.2734V96H108.307V67.5625H113.678L125.807 87.3086V67.5625H131.159ZM175.087 71.8789L166.982 96H161.298L171.923 67.5625H175.556L175.087 71.8789ZM181.865 96L173.72 71.8789L173.232 67.5625H176.884L187.568 96H181.865ZM181.494 85.4336V89.6719H166.24V85.4336H181.494ZM239.134 81.293V92.3672C238.717 92.901 238.059 93.4805 237.161 94.1055C236.276 94.7305 235.117 95.2708 233.684 95.7266C232.252 96.1693 230.494 96.3906 228.411 96.3906C226.601 96.3906 224.947 96.0911 223.45 95.4922C221.953 94.8802 220.664 93.9883 219.583 92.8164C218.502 91.6445 217.669 90.2122 217.083 88.5195C216.497 86.8268 216.204 84.8932 216.204 82.7188V80.8438C216.204 78.6693 216.477 76.7357 217.024 75.043C217.584 73.3503 218.378 71.918 219.407 70.7461C220.449 69.5742 221.692 68.6823 223.137 68.0703C224.596 67.4583 226.223 67.1523 228.02 67.1523C230.429 67.1523 232.408 67.5495 233.958 68.3438C235.52 69.138 236.718 70.2318 237.552 71.625C238.385 73.0052 238.906 74.5938 239.114 76.3906H233.88C233.736 75.401 233.45 74.5352 233.02 73.793C232.591 73.0378 231.979 72.4518 231.184 72.0352C230.403 71.6055 229.387 71.3906 228.137 71.3906C227.083 71.3906 226.152 71.599 225.345 72.0156C224.537 72.4323 223.86 73.0378 223.313 73.832C222.766 74.6263 222.35 75.6094 222.063 76.7812C221.79 77.9531 221.653 79.2943 221.653 80.8047V82.7188C221.653 84.2422 221.809 85.5964 222.122 86.7812C222.434 87.9531 222.884 88.9427 223.47 89.75C224.068 90.5443 224.804 91.1497 225.677 91.5664C226.562 91.9701 227.565 92.1719 228.684 92.1719C229.7 92.1719 230.54 92.0872 231.204 91.918C231.881 91.7357 232.421 91.5208 232.825 91.2734C233.229 91.026 233.541 90.7852 233.762 90.5508V85.2188H228.118V81.293H239.134ZM294.039 81.0586V82.5234C294.039 84.6719 293.753 86.6055 293.18 88.3242C292.607 90.0299 291.793 91.4818 290.738 92.6797C289.684 93.8776 288.427 94.7956 286.969 95.4336C285.51 96.0716 283.889 96.3906 282.105 96.3906C280.348 96.3906 278.733 96.0716 277.262 95.4336C275.803 94.7956 274.54 93.8776 273.473 92.6797C272.405 91.4818 271.578 90.0299 270.992 88.3242C270.406 86.6055 270.113 84.6719 270.113 82.5234V81.0586C270.113 78.8971 270.406 76.9635 270.992 75.2578C271.578 73.5521 272.398 72.1003 273.453 70.9023C274.508 69.6914 275.764 68.7669 277.223 68.1289C278.694 67.4909 280.309 67.1719 282.066 67.1719C283.85 67.1719 285.471 67.4909 286.93 68.1289C288.388 68.7669 289.645 69.6914 290.699 70.9023C291.767 72.1003 292.587 73.5521 293.16 75.2578C293.746 76.9635 294.039 78.8971 294.039 81.0586ZM288.609 82.5234V81.0195C288.609 79.4701 288.466 78.1094 288.18 76.9375C287.893 75.7526 287.47 74.7565 286.91 73.9492C286.35 73.1419 285.66 72.5365 284.84 72.1328C284.02 71.7161 283.095 71.5078 282.066 71.5078C281.025 71.5078 280.1 71.7161 279.293 72.1328C278.499 72.5365 277.822 73.1419 277.262 73.9492C276.702 74.7565 276.272 75.7526 275.973 76.9375C275.686 78.1094 275.543 79.4701 275.543 81.0195V82.5234C275.543 84.0599 275.686 85.4206 275.973 86.6055C276.272 87.7904 276.702 88.793 277.262 89.6133C277.835 90.4206 278.525 91.0326 279.332 91.4492C280.139 91.8659 281.064 92.0742 282.105 92.0742C283.147 92.0742 284.072 91.8659 284.879 91.4492C285.686 91.0326 286.363 90.4206 286.91 89.6133C287.47 88.793 287.893 87.7904 288.18 86.6055C288.466 85.4206 288.609 84.0599 288.609 82.5234Z" fill="#E4E4E4"/>
</g>
<rect width="156.679" height="11.7318" transform="matrix(0.960791 -0.277273 0.708807 0.705402 0.561974 44.2867)" fill="#D9D9D9"/>
<rect width="156.679" height="11.7311" transform="matrix(0.958186 0.286146 -0.72139 0.692529 150.976 1.04274)" fill="#D9D9D9"/>
<defs>
<filter id="filter0_i_2_10" x="6.40625" y="67.1523" width="287.633" height="33.2383" filterUnits="userSpaceOnUse" color-interpolation-filters="sRGB">
<feFlood flood-opacity="0" result="BackgroundImageFix"/>
<feBlend mode="normal" in="SourceGraphic" in2="BackgroundImageFix" result="shape"/>
<feColorMatrix in="SourceAlpha" type="matrix" values="0 0 0 0 0 0 0 0 0 0 0 0 0 0 0 0 0 0 127 0" result="hardAlpha"/>
<feOffset dy="4"/>
<feGaussianBlur stdDeviation="2"/>
<feComposite in2="hardAlpha" operator="arithmetic" k2="-1" k3="1"/>
<feColorMatrix type="matrix" values="0 0 0 0 0 0 0 0 0 0 0 0 0 0 0 0 0 0 0.25 0"/>
<feBlend mode="normal" in2="shape" result="effect1_innerShadow_2_10"/>
</filter>
</defs>
</svg>
