<svg width="240" height="79" viewBox="0 0 240 79" fill="none" xmlns="http://www.w3.org/2000/svg">
<g filter="url(#filter0_i_2_10)">
<path d="M19.0781 72.0938C19.0781 71.6562 19.0104 71.2656 18.875 70.9219C18.75 70.5677 18.5156 70.25 18.1719 69.9688C17.8385 69.6771 17.3646 69.3958 16.75 69.125C16.1458 68.8438 15.3646 68.5521 14.4062 68.25C13.3438 67.9167 12.3542 67.5417 11.4375 67.125C10.5208 66.7083 9.71354 66.224 9.01562 65.6719C8.32812 65.1198 7.79167 64.4844 7.40625 63.7656C7.02083 63.0365 6.82812 62.1927 6.82812 61.2344C6.82812 60.2969 7.02604 59.4427 7.42188 58.6719C7.82812 57.901 8.40104 57.2396 9.14062 56.6875C9.88021 56.125 10.75 55.6927 11.75 55.3906C12.7604 55.0885 13.875 54.9375 15.0938 54.9375C16.7812 54.9375 18.2396 55.2448 19.4688 55.8594C20.7083 56.474 21.6667 57.3073 22.3438 58.3594C23.0208 59.4115 23.3594 60.5938 23.3594 61.9062H19.0781C19.0781 61.1979 18.9271 60.5729 18.625 60.0312C18.3333 59.4896 17.8854 59.0625 17.2812 58.75C16.6875 58.4375 15.9375 58.2812 15.0312 58.2812C14.1562 58.2812 13.4271 58.4115 12.8438 58.6719C12.2708 58.9323 11.8385 59.2865 11.5469 59.7344C11.2656 60.1823 11.125 60.6823 11.125 61.2344C11.125 61.651 11.224 62.026 11.4219 62.3594C11.6198 62.6823 11.9167 62.9896 12.3125 63.2812C12.7083 63.5625 13.1979 63.8281 13.7812 64.0781C14.375 64.3177 15.0625 64.5573 15.8438 64.7969C17.0938 65.1719 18.1875 65.5885 19.125 66.0469C20.0729 66.5052 20.8594 67.026 21.4844 67.6094C22.1198 68.1927 22.5938 68.849 22.9062 69.5781C23.2292 70.3073 23.3906 71.1354 23.3906 72.0625C23.3906 73.0417 23.1979 73.9167 22.8125 74.6875C22.4271 75.4583 21.875 76.1146 21.1562 76.6562C20.4375 77.1979 19.5729 77.6094 18.5625 77.8906C17.5625 78.1719 16.4427 78.3125 15.2031 78.3125C14.099 78.3125 13.0052 78.1667 11.9219 77.875C10.849 77.5729 9.875 77.125 9 76.5312C8.125 75.9271 7.42708 75.1667 6.90625 74.25C6.38542 73.3229 6.125 72.2396 6.125 71H10.4375C10.4375 71.7188 10.5521 72.3333 10.7812 72.8438C11.0208 73.3438 11.3542 73.7552 11.7812 74.0781C12.2188 74.3906 12.7292 74.6198 13.3125 74.7656C13.8958 74.9115 14.526 74.9844 15.2031 74.9844C16.0781 74.9844 16.7969 74.8646 17.3594 74.625C17.9323 74.375 18.3594 74.0312 18.6406 73.5938C18.9323 73.1562 19.0781 72.6562 19.0781 72.0938ZM63.2213 74.625V78H51.1275V74.625H63.2213ZM52.44 55.25V78H48.1431V55.25H52.44ZM61.6431 64.6406V67.9375H51.1275V64.6406H61.6431ZM63.1744 55.25V58.6406H51.1275V55.25H63.1744ZM105.927 55.25V78H101.614L91.9425 62.2188V78H87.6456V55.25H91.9425L101.646 71.0469V55.25H105.927ZM141.07 58.7031L134.586 78H130.039L138.539 55.25H141.445L141.07 58.7031ZM146.492 78L139.976 58.7031L139.586 55.25H142.507L151.054 78H146.492ZM146.195 69.5469V72.9375H133.992V69.5469H146.195ZM192.307 66.2344V75.0938C191.974 75.5208 191.448 75.9844 190.729 76.4844C190.02 76.9844 189.093 77.4167 187.948 77.7812C186.802 78.1354 185.395 78.3125 183.729 78.3125C182.281 78.3125 180.958 78.0729 179.76 77.5938C178.562 77.1042 177.531 76.3906 176.666 75.4531C175.802 74.5156 175.135 73.3698 174.666 72.0156C174.198 70.6615 173.963 69.1146 173.963 67.375V65.875C173.963 64.1354 174.182 62.5885 174.619 61.2344C175.067 59.8802 175.703 58.7344 176.526 57.7969C177.359 56.8594 178.354 56.1458 179.51 55.6562C180.677 55.1667 181.979 54.9219 183.416 54.9219C185.343 54.9219 186.927 55.2396 188.166 55.875C189.416 56.5104 190.375 57.3854 191.041 58.5C191.708 59.6042 192.125 60.875 192.291 62.3125H188.104C187.989 61.5208 187.76 60.8281 187.416 60.2344C187.073 59.6302 186.583 59.1615 185.948 58.8281C185.323 58.4844 184.51 58.3125 183.51 58.3125C182.666 58.3125 181.921 58.4792 181.276 58.8125C180.63 59.1458 180.088 59.6302 179.651 60.2656C179.213 60.901 178.88 61.6875 178.651 62.625C178.432 63.5625 178.323 64.6354 178.323 65.8438V67.375C178.323 68.5938 178.448 69.6771 178.698 70.625C178.948 71.5625 179.307 72.3542 179.776 73C180.255 73.6354 180.843 74.1198 181.541 74.4531C182.25 74.776 183.052 74.9375 183.948 74.9375C184.76 74.9375 185.432 74.8698 185.963 74.7344C186.505 74.5885 186.937 74.4167 187.26 74.2188C187.583 74.0208 187.833 73.8281 188.01 73.6406V69.375H183.494V66.2344H192.307ZM236.231 66.0469V67.2188C236.231 68.9375 236.002 70.4844 235.544 71.8594C235.085 73.224 234.434 74.3854 233.591 75.3438C232.747 76.3021 231.742 77.0365 230.575 77.5469C229.408 78.0573 228.111 78.3125 226.684 78.3125C225.278 78.3125 223.986 78.0573 222.809 77.5469C221.643 77.0365 220.632 76.3021 219.778 75.3438C218.924 74.3854 218.262 73.224 217.794 71.8594C217.325 70.4844 217.091 68.9375 217.091 67.2188V66.0469C217.091 64.3177 217.325 62.7708 217.794 61.4062C218.262 60.0417 218.919 58.8802 219.762 57.9219C220.606 56.9531 221.611 56.2135 222.778 55.7031C223.955 55.1927 225.247 54.9375 226.653 54.9375C228.08 54.9375 229.377 55.1927 230.544 55.7031C231.71 56.2135 232.716 56.9531 233.559 57.9219C234.414 58.8802 235.07 60.0417 235.528 61.4062C235.997 62.7708 236.231 64.3177 236.231 66.0469ZM231.887 67.2188V66.0156C231.887 64.776 231.773 63.6875 231.544 62.75C231.315 61.8021 230.976 61.0052 230.528 60.3594C230.08 59.7135 229.528 59.2292 228.872 58.9062C228.216 58.5729 227.476 58.4062 226.653 58.4062C225.82 58.4062 225.08 58.5729 224.434 58.9062C223.799 59.2292 223.257 59.7135 222.809 60.3594C222.361 61.0052 222.018 61.8021 221.778 62.75C221.549 63.6875 221.434 64.776 221.434 66.0156V67.2188C221.434 68.4479 221.549 69.5365 221.778 70.4844C222.018 71.4323 222.361 72.2344 222.809 72.8906C223.268 73.5365 223.82 74.026 224.466 74.3594C225.111 74.6927 225.851 74.8594 226.684 74.8594C227.518 74.8594 228.257 74.6927 228.903 74.3594C229.549 74.026 230.091 73.5365 230.528 72.8906C230.976 72.2344 231.315 71.4323 231.544 70.4844C231.773 69.5365 231.887 68.4479 231.887 67.2188Z" fill="#E4E4E4"/>
</g>
<rect width="124.23" height="9.39106" transform="matrix(0.960791 -0.277273 0.708807 0.705402 0.561974 35.11)" fill="#D9D9D9"/>
<rect width="124.23" height="9.39048" transform="matrix(0.958186 0.286146 -0.72139 0.692529 120.965 0.494141)" fill="#D9D9D9"/>
<defs>
<filter id="filter0_i_2_10" x="6.125" y="54.9219" width="230.106" height="27.3906" filterUnits="userSpaceOnUse" color-interpolation-filters="sRGB">
<feFlood flood-opacity="0" result="BackgroundImageFix"/>
<feBlend mode="normal" in="SourceGraphic" in2="BackgroundImageFix" result="shape"/>
<feColorMatrix in="SourceAlpha" type="matrix" values="0 0 0 0 0 0 0 0 0 0 0 0 0 0 0 0 0 0 127 0" result="hardAlpha"/>
<feOffset dy="4"/>
<feGaussianBlur stdDeviation="2"/>
<feComposite in2="hardAlpha" operator="arithmetic" k2="-1" k3="1"/>
<feColorMatrix type="matrix" values="0 0 0 0 0 0 0 0 0 0 0 0 0 0 0 0 0 0 0.25 0"/>
<feBlend mode="normal" in2="shape" result="effect1_innerShadow_2_10"/>
</filter>
</defs>
</svg>
