<?xml version="1.0" encoding="UTF-8" standalone="no"?>
<svg
   xmlns:dc="http://purl.org/dc/elements/1.1/"
   xmlns:cc="http://creativecommons.org/ns#"
   xmlns:rdf="http://www.w3.org/1999/02/22-rdf-syntax-ns#"
   xmlns:svg="http://www.w3.org/2000/svg"
   xmlns="http://www.w3.org/2000/svg"
   xmlns:sodipodi="http://sodipodi.sourceforge.net/DTD/sodipodi-0.dtd"
   xmlns:inkscape="http://www.inkscape.org/namespaces/inkscape"
   width="473.24936"
   height="112.37664"
   viewBox="0 0 473.24935 112.37664"
   version="1.1"
   id="svg31"
   sodipodi:docname="navbar-logo.svg"
   inkscape:version="0.92.1 r15371"
   style="fill:none">
  <metadata
     id="metadata35">
    <rdf:RDF>
      <cc:Work
         rdf:about="">
        <dc:format>image/svg+xml</dc:format>
        <dc:type
           rdf:resource="http://purl.org/dc/dcmitype/StillImage" />
        <dc:title></dc:title>
      </cc:Work>
    </rdf:RDF>
  </metadata>
  <sodipodi:namedview
     pagecolor="#ffffff"
     bordercolor="#666666"
     borderopacity="1"
     objecttolerance="10"
     gridtolerance="10"
     guidetolerance="10"
     inkscape:pageopacity="0"
     inkscape:pageshadow="2"
     inkscape:window-width="1366"
     inkscape:window-height="705"
     id="namedview33"
     showgrid="false"
     inkscape:zoom="1.4541667"
     inkscape:cx="288.59177"
     inkscape:cy="55.993991"
     inkscape:window-x="-8"
     inkscape:window-y="-8"
     inkscape:window-maximized="1"
     inkscape:current-layer="svg31" />
  <g
     id="g4"
     transform="matrix(1.9764966,0,0,1.1394561,-1.1107347,-0.56305117)"
     style="filter:url(#filter0_i_2_10)">
    <path
       d="m 19.0781,72.0938 c 0,-0.4376 -0.0677,-0.8282 -0.2031,-1.1719 C 18.75,70.5677 18.5156,70.25 18.1719,69.9688 17.8385,69.6771 17.3646,69.3958 16.75,69.125 16.1458,68.8438 15.3646,68.5521 14.4062,68.25 13.3438,67.9167 12.3542,67.5417 11.4375,67.125 10.5208,66.7083 9.71354,66.224 9.01562,65.6719 8.32812,65.1198 7.79167,64.4844 7.40625,63.7656 7.02083,63.0365 6.82812,62.1927 6.82812,61.2344 c 0,-0.9375 0.19792,-1.7917 0.59376,-2.5625 C 7.82812,57.901 8.40104,57.2396 9.14062,56.6875 9.88021,56.125 10.75,55.6927 11.75,55.3906 c 1.0104,-0.3021 2.125,-0.4531 3.3438,-0.4531 1.6874,0 3.1458,0.3073 4.375,0.9219 1.2395,0.6146 2.1979,1.4479 2.875,2.5 0.677,1.0521 1.0156,2.2344 1.0156,3.5468 h -4.2813 c 0,-0.7083 -0.151,-1.3333 -0.4531,-1.875 -0.2917,-0.5416 -0.7396,-0.9687 -1.3438,-1.2812 -0.5937,-0.3125 -1.3437,-0.4688 -2.25,-0.4688 -0.875,0 -1.6041,0.1303 -2.1874,0.3907 -0.573,0.2604 -1.0053,0.6146 -1.2969,1.0625 -0.2813,0.4479 -0.4219,0.9479 -0.4219,1.5 0,0.4166 0.099,0.7916 0.2969,1.125 0.1979,0.3229 0.4948,0.6302 0.8906,0.9218 0.3958,0.2813 0.8854,0.5469 1.4687,0.7969 0.5938,0.2396 1.2813,0.4792 2.0626,0.7188 1.25,0.375 2.3437,0.7916 3.2812,1.25 0.9479,0.4583 1.7344,0.9791 2.3594,1.5625 0.6354,0.5833 1.1094,1.2396 1.4218,1.9687 0.323,0.7292 0.4844,1.5573 0.4844,2.4844 0,0.9792 -0.1927,1.8542 -0.5781,2.625 -0.3854,0.7708 -0.9375,1.4271 -1.6563,1.9687 -0.7187,0.5417 -1.5833,0.9532 -2.5937,1.2344 -1,0.2813 -2.1198,0.4219 -3.3594,0.4219 -1.1041,0 -2.1979,-0.1458 -3.2812,-0.4375 C 10.849,77.5729 9.875,77.125 9,76.5312 8.125,75.9271 7.42708,75.1667 6.90625,74.25 6.38542,73.3229 6.125,72.2396 6.125,71 h 4.3125 c 0,0.7188 0.1146,1.3333 0.3437,1.8438 0.2396,0.5 0.573,0.9114 1,1.2343 0.4376,0.3125 0.948,0.5417 1.5313,0.6875 0.5833,0.1459 1.2135,0.2188 1.8906,0.2188 0.875,0 1.5938,-0.1198 2.1563,-0.3594 0.5729,-0.25 1,-0.5938 1.2812,-1.0312 0.2917,-0.4376 0.4375,-0.9376 0.4375,-1.5 z M 63.2213,74.625 V 78 H 51.1275 V 74.625 Z M 52.44,55.25 V 78 H 48.1431 V 55.25 Z m 9.2031,9.3906 v 3.2969 H 51.1275 V 64.6406 Z M 63.1744,55.25 v 3.3906 H 51.1275 V 55.25 Z m 42.7526,0 V 78 h -4.313 L 91.9425,62.2188 V 78 H 87.6456 V 55.25 h 4.2969 l 9.7035,15.7969 V 55.25 Z M 141.07,58.7031 134.586,78 h -4.547 l 8.5,-22.75 h 2.906 z M 146.492,78 139.976,58.7031 139.586,55.25 h 2.921 L 151.054,78 Z m -0.297,-8.4531 v 3.3906 h -12.203 v -3.3906 z m 46.112,-3.3125 v 8.8594 c -0.333,0.427 -0.859,0.8906 -1.578,1.3906 -0.709,0.5 -1.636,0.9323 -2.781,1.2968 -1.146,0.3542 -2.553,0.5313 -4.219,0.5313 -1.448,0 -2.771,-0.2396 -3.969,-0.7187 -1.198,-0.4896 -2.229,-1.2032 -3.094,-2.1407 -0.864,-0.9375 -1.531,-2.0833 -2,-3.4375 -0.468,-1.3541 -0.703,-2.901 -0.703,-4.6406 v -1.5 c 0,-1.7396 0.219,-3.2865 0.656,-4.6406 0.448,-1.3542 1.084,-2.5 1.907,-3.4375 0.833,-0.9375 1.828,-1.6511 2.984,-2.1407 1.167,-0.4895 2.469,-0.7343 3.906,-0.7343 1.927,0 3.511,0.3177 4.75,0.9531 1.25,0.6354 2.209,1.5104 2.875,2.625 0.667,1.1042 1.084,2.375 1.25,3.8125 h -4.187 c -0.115,-0.7917 -0.344,-1.4844 -0.688,-2.0781 -0.343,-0.6042 -0.833,-1.0729 -1.468,-1.4063 -0.625,-0.3437 -1.438,-0.5156 -2.438,-0.5156 -0.844,0 -1.589,0.1667 -2.234,0.5 -0.646,0.3333 -1.188,0.8177 -1.625,1.4531 -0.438,0.6354 -0.771,1.4219 -1,2.3594 -0.219,0.9375 -0.328,2.0104 -0.328,3.2188 v 1.5312 c 0,1.2188 0.125,2.3021 0.375,3.25 0.25,0.9375 0.609,1.7292 1.078,2.375 0.479,0.6354 1.067,1.1198 1.765,1.4531 0.709,0.3229 1.511,0.4844 2.407,0.4844 0.812,0 1.484,-0.0677 2.015,-0.2031 0.542,-0.1459 0.974,-0.3177 1.297,-0.5156 0.323,-0.198 0.573,-0.3907 0.75,-0.5782 V 69.375 h -4.516 v -3.1406 z m 43.924,-0.1875 v 1.1719 c 0,1.7187 -0.229,3.2656 -0.687,4.6406 -0.459,1.3646 -1.11,2.526 -1.953,3.4844 -0.844,0.9583 -1.849,1.6927 -3.016,2.2031 -1.167,0.5104 -2.464,0.7656 -3.891,0.7656 -1.406,0 -2.698,-0.2552 -3.875,-0.7656 -1.166,-0.5104 -2.177,-1.2448 -3.031,-2.2031 -0.854,-0.9584 -1.516,-2.1198 -1.984,-3.4844 -0.469,-1.375 -0.703,-2.9219 -0.703,-4.6406 v -1.1719 c 0,-1.7292 0.234,-3.2761 0.703,-4.6407 0.468,-1.3645 1.125,-2.526 1.968,-3.4843 0.844,-0.9688 1.849,-1.7084 3.016,-2.2188 1.177,-0.5104 2.469,-0.7656 3.875,-0.7656 1.427,0 2.724,0.2552 3.891,0.7656 1.166,0.5104 2.172,1.25 3.015,2.2188 0.855,0.9583 1.511,2.1198 1.969,3.4843 0.469,1.3646 0.703,2.9115 0.703,4.6407 z m -4.344,1.1719 v -1.2032 c 0,-1.2396 -0.114,-2.3281 -0.343,-3.2656 -0.229,-0.9479 -0.568,-1.7448 -1.016,-2.3906 -0.448,-0.6459 -1,-1.1302 -1.656,-1.4532 -0.656,-0.3333 -1.396,-0.5 -2.219,-0.5 -0.833,0 -1.573,0.1667 -2.219,0.5 -0.635,0.323 -1.177,0.8073 -1.625,1.4532 -0.448,0.6458 -0.791,1.4427 -1.031,2.3906 -0.229,0.9375 -0.344,2.026 -0.344,3.2656 v 1.2032 c 0,1.2291 0.115,2.3177 0.344,3.2656 0.24,0.9479 0.583,1.75 1.031,2.4062 0.459,0.6459 1.011,1.1354 1.657,1.4688 0.645,0.3333 1.385,0.5 2.218,0.5 0.834,0 1.573,-0.1667 2.219,-0.5 0.646,-0.3334 1.188,-0.8229 1.625,-1.4688 0.448,-0.6562 0.787,-1.4583 1.016,-2.4062 0.229,-0.9479 0.343,-2.0365 0.343,-3.2656 z"
       id="path2"
       inkscape:connector-curvature="0"
       style="fill:#e4e4e4" />
  </g>
  <rect
     width="239.15552"
     height="15.168023"
     transform="matrix(0.98644103,-0.16411613,0.86738064,0.49764528,0,0)"
     id="rect6"
     x="-54.026646"
     y="61.442574"
     style="fill:#d9d9d9;stroke-width:1.76333213" />
  <rect
     width="238.73448"
     height="15.302929"
     transform="matrix(0.9855015,0.16966671,-0.87494251,0.48422682,0,0)"
     id="rect8"
     x="184.18213"
     y="-64.534996"
     style="fill:#d9d9d9;stroke-width:1.76965117" />
  <path
     d="m 10.728935,102.52217 h 5.582061 c 1.266202,0 2.335506,0.11121 3.207954,0.33374 0.880136,0.22254 1.547989,0.55195 2.003576,0.98814 0.463093,0.43175 0.694739,0.96364 0.694739,1.59569 0,0.44507 -0.158124,0.85232 -0.474759,1.22185 -0.308921,0.36496 -0.756604,0.67649 -1.34342,0.93469 -0.579118,0.25364 -1.273857,0.44279 -2.084572,0.56745 l -0.625367,0.14028 h -5.246212 l -0.02318,-1.04831 h 3.960722 c 0.802952,0 1.470789,-0.0801 2.003519,-0.24032 0.532705,-0.16464 0.934131,-0.38501 1.20451,-0.661 0.270188,-0.27596 0.40518,-0.58078 0.40518,-0.91464 0,-0.37385 -0.127286,-0.70098 -0.382056,-0.9814 -0.25477,-0.28043 -0.656394,-0.49636 -1.204477,-0.64768 -0.540452,-0.15576 -1.239159,-0.2337 -2.096172,-0.2337 H 12.96406 v 8.66613 h -2.235139 z m 9.85554,9.72092 -4.099763,-4.40649 2.327841,-0.006 4.157554,4.33301 v 0.0801 z m 24.959402,-1.04818 v 1.04818 h -8.929021 v -1.04818 z m -8.477394,-8.67274 v 9.72092 h -2.235024 v -9.72092 z m 7.296042,4.17941 v 1.04818 h -7.747669 v -1.04818 z m 1.065528,-4.17941 v 1.05479 h -8.813197 v -1.05479 z m 18.613066,0.8612 -5.582022,8.85972 h -2.281471 l 6.42737,-9.72092 h 1.470909 z m 4.678762,8.85972 -5.593683,-8.85972 -0.03478,-0.8612 h 1.470909 l 6.450494,9.72092 z m -0.289556,-3.59863 v 1.05492 h -9.473348 v -1.05492 z m 24.554019,2.55045 v 1.04818 h -8.430945 v -1.04818 z m -7.990779,-8.67274 v 9.72092 h -2.23522 v -9.72092 z m 46.120165,8.67274 v 1.04818 h -8.92882 v -1.04818 z m -8.47719,-8.67274 v 9.72092 h -2.23522 v -9.72092 z m 7.29604,4.17941 v 1.04818 h -7.74767 v -1.04818 z m 1.06533,-4.17941 v 1.05479 h -8.813 v -1.05479 z m 21.35783,7.26403 c 0,-0.2271 -0.0617,-0.42729 -0.1852,-0.60095 -0.11583,-0.17798 -0.32434,-0.3383 -0.62556,-0.48074 -0.29332,-0.14242 -0.70245,-0.27814 -1.22741,-0.40724 -0.51744,-0.1291 -1.17364,-0.26036 -1.96879,-0.3939 -0.83388,-0.14245 -1.58673,-0.30048 -2.25834,-0.47402 -0.67181,-0.17811 -1.24697,-0.38057 -1.72568,-0.60756 -0.47871,-0.22698 -0.84535,-0.48734 -1.10012,-0.78121 -0.25477,-0.29375 -0.38225,-0.62977 -0.38225,-1.00807 0,-0.37842 0.13519,-0.72778 0.40538,-1.04819 0.27018,-0.32053 0.65619,-0.59868 1.15822,-0.83464 0.50954,-0.24032 1.11554,-0.42731 1.81818,-0.56085 0.70245,-0.13342 1.48613,-0.2002 2.35085,-0.2002 1.26634,0 2.33938,0.14014 3.21951,0.42057 0.88805,0.27597 1.56341,0.63866 2.0267,1.08829 0.4633,0.44508 0.69494,0.92136 0.69494,1.42877 h -2.22356 c 0,-0.36497 -0.13519,-0.68767 -0.40538,-0.96809 -0.27019,-0.28486 -0.67932,-0.50739 -1.2276,-0.66771 -0.54808,-0.16466 -1.24302,-0.24704 -2.08461,-0.24704 -0.79515,0 -1.45134,0.069 -1.96879,0.20703 -0.51725,0.138 -0.90326,0.32486 -1.15803,0.56085 -0.24706,0.23586 -0.37059,0.50512 -0.37059,0.80787 0,0.20465 0.0733,0.39164 0.21998,0.56073 0.15436,0.16476 0.38996,0.31825 0.7064,0.46068 0.32435,0.14244 0.73348,0.27381 1.2276,0.39391 0.50184,0.12022 1.10032,0.23598 1.79506,0.3472 0.95741,0.15587 1.78359,0.32941 2.47833,0.52084 0.69493,0.19131 1.26634,0.40724 1.71402,0.64756 0.45558,0.23597 0.79138,0.50522 1.00761,0.80787 0.22394,0.29819 0.33581,0.6365 0.33581,1.0148 0,0.39618 -0.13895,0.75443 -0.41684,1.07496 -0.2779,0.32042 -0.67557,0.59422 -1.19282,0.8212 -0.51725,0.22699 -1.13886,0.4028 -1.86463,0.52746 -0.71806,0.12021 -1.52091,0.18026 -2.40875,0.18026 -0.77993,0 -1.54799,-0.0624 -2.30479,-0.18698 -0.7489,-0.12454 -1.43217,-0.31153 -2.04983,-0.56085 -0.60995,-0.2492 -1.10012,-0.55627 -1.47071,-0.92136 -0.36289,-0.36941 -0.54433,-0.79671 -0.54433,-1.28189 h 2.22356 c 0,0.33386 0.11187,0.621 0.33581,0.86131 0.22393,0.23587 0.52891,0.43175 0.91492,0.58752 0.39372,0.15575 0.83764,0.27153 1.33176,0.34718 0.50203,0.0712 1.02304,0.10689 1.56361,0.10689 0.77973,0 1.43988,-0.0624 1.98025,-0.18699 0.54057,-0.12465 0.9497,-0.30264 1.2276,-0.53407 0.28561,-0.23153 0.42851,-0.50522 0.42851,-0.8212 z m 20.81349,-7.26403 v 9.72092 h -2.20043 v -9.72092 z m 5.41996,0 v 1.05479 h -13.02868 v -1.05479 z m 17.30422,0.8612 -5.58201,8.85972 h -2.28148 l 6.42756,-9.72092 h 1.47072 z m 4.67955,8.85972 -5.59447,-8.85972 -0.0346,-0.8612 h 1.47072 l 6.45111,9.72092 z m -0.29054,-3.59863 v 1.05492 h -9.47296 v -1.05492 z m 19.05344,-6.12229 v 9.72092 h -2.19984 v -9.72092 z m 5.41956,0 v 1.05479 h -13.02907 v -1.05479 z m 22.70204,8.67274 v 1.04818 h -8.92982 v -1.04818 z m -8.4772,-8.67274 v 9.72092 h -2.23542 v -9.72092 z m 7.29524,4.17941 v 1.04818 h -7.74786 v -1.04818 z m 1.06534,-4.17941 v 1.05479 h -8.8132 v -1.05479 z m 30.13958,0 v 9.72092 h -2.2354 v -9.72092 z m 26.52264,0 v 9.72092 h -2.2473 l -8.48903,-7.49773 v 7.49773 h -2.23545 v -9.72092 h 2.23545 l 8.52461,7.51767 v -7.51767 z m 18.89134,8.24544 4.96693,-8.24544 h 2.42122 l -6.24179,9.72092 h -1.72548 z m -4.64477,-8.24544 4.92149,8.24544 0.61467,1.47548 h -1.72546 l -6.23191,-9.72092 z m 34.50174,8.67274 v 1.04818 h -8.92785 v -1.04818 z m -8.47721,-8.67274 v 9.72092 h -2.23542 v -9.72092 z m 7.29722,4.17941 v 1.04818 h -7.74786 v -1.04818 z m 1.06534,-4.17941 v 1.05479 h -8.8132 v -1.05479 z m 21.35604,7.26403 c 0,-0.2271 -0.0612,-0.42729 -0.1838,-0.60095 -0.11658,-0.17798 -0.32414,-0.3383 -0.62655,-0.48074 -0.29252,-0.14242 -0.70166,-0.27814 -1.22741,-0.40724 -0.51785,-0.1291 -1.17403,-0.26036 -1.96858,-0.3939 -0.83407,-0.14245 -1.58714,-0.30048 -2.25717,-0.47402 -0.672,-0.17811 -1.24716,-0.38057 -1.72746,-0.60756 -0.47831,-0.22698 -0.84396,-0.48734 -1.09894,-0.78121 -0.25495,-0.29375 -0.38344,-0.62977 -0.38344,-1.00807 0,-0.37842 0.13634,-0.72778 0.40716,-1.04819 0.26882,-0.32053 0.65622,-0.59868 1.15626,-0.83464 0.50994,-0.24032 1.11673,-0.42731 1.81839,-0.56085 0.70362,-0.13342 1.48632,-0.2002 2.35202,-0.2002 1.26497,0 2.33819,0.14014 3.21971,0.42057 0.88744,0.27597 1.5634,0.63866 2.02591,1.08829 0.46448,0.44508 0.69572,0.92136 0.69572,1.42877 h -2.22355 c 0,-0.36497 -0.13634,-0.68767 -0.40518,-0.96809 -0.27078,-0.28486 -0.67991,-0.50739 -1.22741,-0.66771 -0.54946,-0.16466 -1.24321,-0.24704 -2.0852,-0.24704 -0.79456,0 -1.45273,0.069 -1.96859,0.20703 -0.51783,0.138 -0.90326,0.32486 -1.15823,0.56085 -0.24706,0.23586 -0.37157,0.50512 -0.37157,0.80787 0,0.20465 0.0732,0.39164 0.22135,0.56073 0.15416,0.16476 0.38938,0.31825 0.70562,0.46068 0.32414,0.14244 0.73327,0.27381 1.22741,0.39391 0.50201,0.12022 1.10089,0.23598 1.79464,0.3472 0.95861,0.15587 1.78479,0.32941 2.47854,0.52084 0.69573,0.19131 1.26693,0.40724 1.71362,0.64756 0.45657,0.23597 0.79257,0.50522 1.00801,0.80787 0.22532,0.29819 0.33601,0.6365 0.33601,1.0148 0,0.39618 -0.13828,0.75443 -0.41705,1.07496 -0.2767,0.32042 -0.67596,0.59422 -1.19182,0.8212 -0.51785,0.22699 -1.13846,0.4028 -1.86581,0.52746 -0.71747,0.12021 -1.51992,0.18026 -2.40738,0.18026 -0.78071,0 -1.54958,-0.0624 -2.30458,-0.18698 -0.7491,-0.12454 -1.43297,-0.31153 -2.05162,-0.56085 -0.60874,-0.2492 -1.09894,-0.55627 -1.4705,-0.92136 -0.36172,-0.36941 -0.54356,-0.79671 -0.54356,-1.28189 h 2.22357 c 0,0.33386 0.11271,0.621 0.33601,0.86131 0.22335,0.23587 0.52771,0.43175 0.91512,0.58752 0.39331,0.15575 0.83803,0.27153 1.33216,0.34718 0.50005,0.0712 1.02185,0.10689 1.5634,0.10689 0.77874,0 1.43889,-0.0624 1.98045,-0.18699 0.53958,-0.12465 0.94873,-0.30264 1.22741,-0.53407 0.28461,-0.23153 0.42691,-0.50522 0.42691,-0.8212 z m 20.8145,-7.26403 v 9.72092 h -2.19985 v -9.72092 z m 5.41956,0 v 1.05479 h -13.02908 v -1.05479 z m 14.38693,0 v 9.72092 h -2.23545 v -9.72092 z m 26.52259,0 v 9.72092 h -2.24728 l -8.48905,-7.49773 v 7.49773 h -2.23541 v -9.72092 h 2.23541 l 8.52464,7.51767 v -7.51767 z m 25.90792,4.88052 v 3.55852 c -0.20754,0.17798 -0.53959,0.37829 -0.99615,0.60084 -0.4546,0.2182 -1.08313,0.40952 -1.88756,0.57416 -0.79456,0.16032 -1.82233,0.24043 -3.07937,0.24043 -1.02778,0 -1.97256,-0.10243 -2.83826,-0.30708 -0.85583,-0.2092 -1.60096,-0.51196 -2.23541,-0.90803 -0.62458,-0.40063 -1.1108,-0.88582 -1.45867,-1.45554 -0.33996,-0.57418 -0.50993,-1.22401 -0.50993,-1.94951 v -0.75442 c 0,-0.72549 0.14621,-1.37317 0.44076,-1.9429 0.30043,-0.56972 0.74119,-1.05262 1.3203,-1.44881 0.57911,-0.40052 1.28868,-0.70327 2.13066,-0.90792 0.84199,-0.2092 1.80651,-0.3138 2.89557,-0.3138 1.28868,0 2.36587,0.12898 3.23158,0.38718 0.87163,0.25376 1.55155,0.6054 2.03776,1.05491 0.49413,0.44951 0.81037,0.96136 0.94872,1.53553 h -2.2354 c -0.099,-0.35164 -0.30045,-0.67205 -0.60088,-0.96136 -0.29449,-0.2893 -0.71548,-0.52073 -1.26298,-0.69439 -0.54748,-0.17797 -1.25508,-0.26708 -2.1188,-0.26708 -0.7807,0 -1.4547,0.0824 -2.02788,0.24704 -0.57121,0.16476 -1.04162,0.40062 -1.41123,0.70771 -0.37158,0.30719 -0.65025,0.67878 -0.83407,1.11507 -0.1779,0.43619 -0.26682,0.92798 -0.26682,1.47548 v 0.76776 c 0,0.56085 0.11253,1.06153 0.336,1.50227 0.23126,0.44063 0.55935,0.81676 0.98429,1.12828 0.42495,0.30709 0.93094,0.54079 1.51794,0.701 0.59295,0.16032 1.24916,0.24043 1.96861,0.24043 0.79454,0 1.43887,-0.0378 1.933,-0.1135 0.49412,-0.0802 0.87955,-0.17365 1.15822,-0.28042 0.27869,-0.11132 0.49018,-0.21592 0.63645,-0.31381 v -2.17658 h -3.90161 v -1.04146 z"
     id="path10"
     inkscape:connector-curvature="0"
     style="fill:#ffffff;stroke-width:1.50071013" />
  <defs
     id="defs29">
    <filter
       id="filter0_i_2_10"
       x="6.125"
       y="54.921902"
       width="230.106"
       height="27.3906"
       filterUnits="userSpaceOnUse"
       style="color-interpolation-filters:sRGB">
      <feFlood
         flood-opacity="0"
         result="BackgroundImageFix"
         id="feFlood12" />
      <feBlend
         mode="normal"
         in="SourceGraphic"
         in2="BackgroundImageFix"
         result="shape"
         id="feBlend14" />
      <feColorMatrix
         in="SourceAlpha"
         type="matrix"
         values="0 0 0 0 0 0 0 0 0 0 0 0 0 0 0 0 0 0 127 0"
         result="hardAlpha"
         id="feColorMatrix16" />
      <feOffset
         dy="4"
         id="feOffset18" />
      <feGaussianBlur
         stdDeviation="2"
         id="feGaussianBlur20" />
      <feComposite
         in2="hardAlpha"
         operator="arithmetic"
         k2="-1"
         k3="1"
         id="feComposite22"
         k1="0"
         k4="0" />
      <feColorMatrix
         type="matrix"
         values="0 0 0 0 0 0 0 0 0 0 0 0 0 0 0 0 0 0 0.25 0"
         id="feColorMatrix24" />
      <feBlend
         mode="normal"
         in2="shape"
         result="effect1_innerShadow_2_10"
         id="feBlend26" />
    </filter>
  </defs>
</svg>
