<svg width="376" height="76" viewBox="0 0 376 76" fill="none" xmlns="http://www.w3.org/2000/svg">
<path d="M21.877 28.4023C21.877 27.6914 21.7669 27.0566 21.5469 26.498C21.3438 25.9225 20.9629 25.4062 20.4043 24.9492C19.8626 24.4753 19.0924 24.0182 18.0938 23.5781C17.112 23.1211 15.8424 22.6471 14.2852 22.1562C12.5586 21.6146 10.9505 21.0052 9.46094 20.3281C7.97135 19.651 6.65951 18.8639 5.52539 17.9668C4.4082 17.0697 3.53646 16.0371 2.91016 14.8691C2.28385 13.6842 1.9707 12.3132 1.9707 10.7559C1.9707 9.23242 2.29232 7.8444 2.93555 6.5918C3.5957 5.33919 4.52669 4.26432 5.72852 3.36719C6.93034 2.45312 8.34375 1.75065 9.96875 1.25977C11.6107 0.76888 13.4219 0.523438 15.4023 0.523438C18.1445 0.523438 20.5143 1.02279 22.5117 2.02148C24.526 3.02018 26.0833 4.37435 27.1836 6.08398C28.2839 7.79362 28.834 9.71484 28.834 11.8477H21.877C21.877 10.6966 21.6315 9.68099 21.1406 8.80078C20.6667 7.92057 19.9388 7.22656 18.957 6.71875C17.9922 6.21094 16.7734 5.95703 15.3008 5.95703C13.8789 5.95703 12.694 6.16862 11.7461 6.5918C10.8151 7.01497 10.1126 7.59049 9.63867 8.31836C9.18164 9.04622 8.95312 9.85872 8.95312 10.7559C8.95312 11.4329 9.11393 12.0423 9.43555 12.584C9.75716 13.1087 10.2396 13.6081 10.8828 14.082C11.526 14.5391 12.3216 14.9707 13.2695 15.377C14.2344 15.7663 15.3516 16.1556 16.6211 16.5449C18.6523 17.1543 20.4297 17.8314 21.9531 18.5762C23.4935 19.321 24.7715 20.1673 25.7871 21.1152C26.8197 22.0632 27.5898 23.1296 28.0977 24.3145C28.6224 25.4993 28.8848 26.8451 28.8848 28.3516C28.8848 29.9427 28.5716 31.3646 27.9453 32.6172C27.319 33.8698 26.4219 34.9362 25.2539 35.8164C24.0859 36.6966 22.681 37.3652 21.0391 37.8223C19.4141 38.2793 17.5944 38.5078 15.5801 38.5078C13.7858 38.5078 12.0085 38.2708 10.248 37.7969C8.50456 37.306 6.92188 36.5781 5.5 35.6133C4.07812 34.6315 2.94401 33.3958 2.09766 31.9062C1.2513 30.3997 0.828125 28.6393 0.828125 26.625H7.83594C7.83594 27.793 8.02214 28.7917 8.39453 29.6211C8.78385 30.4336 9.32552 31.1022 10.0195 31.627C10.7305 32.1348 11.5599 32.5072 12.5078 32.7441C13.4557 32.9811 14.4798 33.0996 15.5801 33.0996C17.002 33.0996 18.1699 32.9049 19.084 32.5156C20.015 32.1094 20.709 31.5508 21.166 30.8398C21.64 30.1289 21.877 29.3164 21.877 28.4023ZM93.6095 32.5156V38H73.9572V32.5156H93.6095ZM76.09 1.03125V38H69.1076V1.03125H76.09ZM91.0451 16.291V21.6484H73.9572V16.291H91.0451ZM93.5334 1.03125V6.54102H73.9572V1.03125H93.5334Z" fill="#EAEAEA"/>
<path d="M163.006 1.03125V38H155.998L140.282 12.3555V38H133.299V1.03125H140.282L156.049 26.7012V1.03125H163.006ZM220.114 6.64258L209.577 38H202.188L216 1.03125H220.723L220.114 6.64258ZM228.924 38L218.336 6.64258L217.702 1.03125H222.45L236.338 38H228.924ZM228.442 24.2637V29.7734H208.612V24.2637H228.442Z" fill="#E3E1E1"/>
<path d="M303.831 18.8809V33.2773C303.289 33.9714 302.434 34.7246 301.266 35.5371C300.115 36.3496 298.609 37.0521 296.747 37.6445C294.885 38.2201 292.6 38.5078 289.891 38.5078C287.538 38.5078 285.389 38.1185 283.442 37.3398C281.495 36.5443 279.82 35.3848 278.415 33.8613C277.01 32.3379 275.926 30.4759 275.165 28.2754C274.403 26.0749 274.022 23.5612 274.022 20.7344V18.2969C274.022 15.4701 274.378 12.9564 275.089 10.7559C275.816 8.55534 276.849 6.69336 278.186 5.16992C279.54 3.64648 281.157 2.48698 283.036 1.69141C284.932 0.895833 287.047 0.498047 289.383 0.498047C292.515 0.498047 295.088 1.01432 297.102 2.04688C299.133 3.07943 300.691 4.5013 301.774 6.3125C302.857 8.10677 303.534 10.1719 303.805 12.5078H297.001C296.814 11.2214 296.442 10.0957 295.883 9.13086C295.325 8.14909 294.529 7.38737 293.497 6.8457C292.481 6.28711 291.161 6.00781 289.536 6.00781C288.165 6.00781 286.954 6.27865 285.905 6.82031C284.855 7.36198 283.975 8.14909 283.264 9.18164C282.553 10.2142 282.012 11.4922 281.639 13.0156C281.284 14.5391 281.106 16.2826 281.106 18.2461V20.7344C281.106 22.7148 281.309 24.4753 281.715 26.0156C282.122 27.5391 282.706 28.8255 283.467 29.875C284.246 30.9076 285.202 31.6947 286.337 32.2363C287.488 32.7611 288.791 33.0234 290.247 33.0234C291.567 33.0234 292.659 32.9134 293.522 32.6934C294.402 32.4564 295.105 32.1771 295.63 31.8555C296.154 31.5339 296.561 31.2207 296.848 30.916V23.9844H289.51V18.8809H303.831ZM375.208 18.5762V20.4805C375.208 23.2734 374.835 25.7871 374.091 28.0215C373.346 30.2389 372.288 32.1263 370.917 33.6836C369.546 35.2409 367.912 36.4342 366.016 37.2637C364.121 38.0931 362.013 38.5078 359.694 38.5078C357.409 38.5078 355.31 38.0931 353.397 37.2637C351.501 36.4342 349.86 35.2409 348.471 33.6836C347.083 32.1263 346.009 30.2389 345.247 28.0215C344.485 25.7871 344.104 23.2734 344.104 20.4805V18.5762C344.104 15.7663 344.485 13.2526 345.247 11.0352C346.009 8.81771 347.075 6.93034 348.446 5.37305C349.817 3.79883 351.451 2.59701 353.346 1.76758C355.259 0.938151 357.358 0.523438 359.643 0.523438C361.962 0.523438 364.07 0.938151 365.966 1.76758C367.861 2.59701 369.495 3.79883 370.866 5.37305C372.254 6.93034 373.32 8.81771 374.065 11.0352C374.827 13.2526 375.208 15.7663 375.208 18.5762ZM368.149 20.4805V18.5254C368.149 16.5111 367.963 14.7422 367.591 13.2188C367.218 11.6784 366.668 10.3835 365.94 9.33398C365.212 8.28451 364.315 7.4974 363.249 6.97266C362.182 6.43099 360.981 6.16016 359.643 6.16016C358.289 6.16016 357.087 6.43099 356.038 6.97266C355.005 7.4974 354.125 8.28451 353.397 9.33398C352.669 10.3835 352.111 11.6784 351.721 13.2188C351.349 14.7422 351.163 16.5111 351.163 18.5254V20.4805C351.163 22.4779 351.349 24.2467 351.721 25.7871C352.111 27.3275 352.669 28.6309 353.397 29.6973C354.142 30.7467 355.039 31.5423 356.089 32.084C357.138 32.6257 358.34 32.8965 359.694 32.8965C361.048 32.8965 362.25 32.6257 363.3 32.084C364.349 31.5423 365.229 30.7467 365.94 29.6973C366.668 28.6309 367.218 27.3275 367.591 25.7871C367.963 24.2467 368.149 22.4779 368.149 20.4805Z" fill="#DAD4D4"/>
<path d="M4.56787 61.4922H9.03955C10.0539 61.4922 10.9105 61.6468 11.6094 61.9561C12.3145 62.2653 12.8494 62.723 13.2144 63.3291C13.5854 63.929 13.771 64.6681 13.771 65.5464C13.771 66.1649 13.6442 66.7308 13.3906 67.2441C13.1432 67.7513 12.7845 68.1842 12.3145 68.543C11.8506 68.8955 11.2939 69.1584 10.6445 69.3315L10.1436 69.5264H5.94092L5.92236 68.0698H9.09521C9.73844 68.0698 10.2734 67.9585 10.7002 67.7358C11.127 67.507 11.4486 67.2008 11.665 66.8174C11.8815 66.4339 11.9897 66.0103 11.9897 65.5464C11.9897 65.0269 11.8877 64.5723 11.6836 64.1826C11.4795 63.793 11.1579 63.493 10.7188 63.2827C10.2858 63.0662 9.72607 62.958 9.03955 62.958H6.3584V75H4.56787V61.4922ZM12.4629 75L9.17871 68.877L11.0435 68.8677L14.374 74.8887V75H12.4629ZM32.4574 73.5435V75H25.3046V73.5435H32.4574ZM25.6664 61.4922V75H23.8759V61.4922H25.6664ZM31.5111 67.2998V68.7563H25.3046V67.2998H31.5111ZM32.3646 61.4922V62.958H25.3046V61.4922H32.3646ZM47.2752 62.689L42.8035 75H40.9759L46.1248 61.4922H47.303L47.2752 62.689ZM51.0232 75L46.5423 62.689L46.5145 61.4922H47.6927L52.8602 75H51.0232ZM50.7913 69.9995V71.4653H43.2024V69.9995H50.7913ZM70.4611 73.5435V75H63.7072V73.5435H70.4611ZM64.0598 61.4922V75H62.2692V61.4922H64.0598ZM101.006 73.5435V75H93.853V73.5435H101.006ZM94.2148 61.4922V75H92.4243V61.4922H94.2148ZM100.06 67.2998V68.7563H93.853V67.2998H100.06ZM100.913 61.4922V62.958H93.853V61.4922H100.913ZM118.022 71.5859C118.022 71.2705 117.973 70.9922 117.874 70.751C117.781 70.5036 117.614 70.2809 117.373 70.083C117.138 69.8851 116.81 69.6965 116.39 69.5171C115.975 69.3377 115.449 69.1553 114.812 68.9697C114.144 68.7718 113.541 68.5522 113.003 68.311C112.465 68.0636 112.004 67.7822 111.621 67.4668C111.238 67.1514 110.944 66.7896 110.74 66.3813C110.536 65.9731 110.433 65.5062 110.433 64.9805C110.433 64.4548 110.542 63.9692 110.758 63.5239C110.975 63.0786 111.284 62.6921 111.686 62.3643C112.094 62.0303 112.58 61.7705 113.142 61.585C113.705 61.3994 114.333 61.3066 115.026 61.3066C116.04 61.3066 116.9 61.5015 117.605 61.8911C118.316 62.2746 118.857 62.7786 119.228 63.4033C119.6 64.0218 119.785 64.6836 119.785 65.3887H118.004C118.004 64.8815 117.896 64.4331 117.679 64.0435C117.463 63.6476 117.135 63.3384 116.696 63.1157C116.257 62.8869 115.7 62.7725 115.026 62.7725C114.389 62.7725 113.863 62.8683 113.449 63.0601C113.034 63.2518 112.725 63.5116 112.521 63.8394C112.323 64.1672 112.224 64.5413 112.224 64.9619C112.224 65.2464 112.283 65.5062 112.4 65.7412C112.524 65.9701 112.713 66.1834 112.966 66.3813C113.226 66.5793 113.554 66.7617 113.95 66.9287C114.352 67.0957 114.831 67.2565 115.388 67.4111C116.155 67.6276 116.816 67.8688 117.373 68.1348C117.93 68.4007 118.387 68.7007 118.746 69.0347C119.111 69.3625 119.38 69.7367 119.553 70.1572C119.732 70.5716 119.822 71.0417 119.822 71.5674C119.822 72.1178 119.711 72.6157 119.488 73.061C119.266 73.5063 118.947 73.8867 118.533 74.2021C118.118 74.5176 117.62 74.7619 117.039 74.9351C116.464 75.1021 115.821 75.1855 115.109 75.1855C114.485 75.1855 113.869 75.099 113.263 74.9258C112.663 74.7526 112.116 74.4928 111.621 74.1465C111.132 73.8001 110.74 73.3734 110.443 72.8662C110.152 72.3529 110.007 71.7591 110.007 71.085H111.788C111.788 71.5488 111.878 71.9478 112.057 72.2817C112.236 72.6095 112.481 72.8817 112.79 73.0981C113.105 73.3146 113.461 73.4754 113.857 73.5806C114.259 73.6795 114.676 73.729 115.109 73.729C115.734 73.729 116.263 73.6424 116.696 73.4692C117.129 73.2961 117.456 73.0487 117.679 72.7271C117.908 72.4054 118.022 72.0251 118.022 71.5859ZM134.696 61.4922V75H132.933V61.4922H134.696ZM139.037 61.4922V62.958H128.6V61.4922H139.037ZM152.9 62.689L148.428 75H146.6L151.749 61.4922H152.927L152.9 62.689ZM156.648 75L152.167 62.689L152.139 61.4922H153.317L158.485 75H156.648ZM156.416 69.9995V71.4653H148.827V69.9995H156.416ZM171.679 61.4922V75H169.916V61.4922H171.679ZM176.021 61.4922V62.958H165.584V61.4922H176.021ZM194.206 73.5435V75H187.053V73.5435H194.206ZM187.415 61.4922V75H185.625V61.4922H187.415ZM193.26 67.2998V68.7563H187.053V67.2998H193.26ZM194.113 61.4922V62.958H187.053V61.4922H194.113ZM218.257 61.4922V75H216.466V61.4922H218.257ZM239.504 61.4922V75H237.704L230.904 64.5815V75H229.113V61.4922H230.904L237.732 71.9385V61.4922H239.504ZM254.637 72.9497L258.617 61.4922H260.556L255.555 75H254.173L254.637 72.9497ZM250.917 61.4922L254.859 72.9497L255.351 75H253.969L248.978 61.4922H250.917ZM278.556 73.5435V75H271.403V73.5435H278.556ZM271.765 61.4922V75H269.974V61.4922H271.765ZM277.609 67.2998V68.7563H271.403V67.2998H277.609ZM278.463 61.4922V62.958H271.403V61.4922H278.463ZM295.572 71.5859C295.572 71.2705 295.523 70.9922 295.424 70.751C295.331 70.5036 295.164 70.2809 294.923 70.083C294.688 69.8851 294.36 69.6965 293.939 69.5171C293.525 69.3377 292.999 69.1553 292.362 68.9697C291.694 68.7718 291.091 68.5522 290.553 68.311C290.015 68.0636 289.554 67.7822 289.171 67.4668C288.787 67.1514 288.494 66.7896 288.289 66.3813C288.085 65.9731 287.983 65.5062 287.983 64.9805C287.983 64.4548 288.092 63.9692 288.308 63.5239C288.524 63.0786 288.834 62.6921 289.236 62.3643C289.644 62.0303 290.129 61.7705 290.692 61.585C291.255 61.3994 291.883 61.3066 292.576 61.3066C293.59 61.3066 294.45 61.5015 295.155 61.8911C295.866 62.2746 296.407 62.7786 296.778 63.4033C297.149 64.0218 297.335 64.6836 297.335 65.3887H295.554C295.554 64.8815 295.445 64.4331 295.229 64.0435C295.012 63.6476 294.685 63.3384 294.246 63.1157C293.806 62.8869 293.25 62.7725 292.576 62.7725C291.939 62.7725 291.413 62.8683 290.998 63.0601C290.584 63.2518 290.275 63.5116 290.071 63.8394C289.873 64.1672 289.774 64.5413 289.774 64.9619C289.774 65.2464 289.833 65.5062 289.95 65.7412C290.074 65.9701 290.262 66.1834 290.516 66.3813C290.776 66.5793 291.104 66.7617 291.499 66.9287C291.901 67.0957 292.381 67.2565 292.937 67.4111C293.704 67.6276 294.366 67.8688 294.923 68.1348C295.479 68.4007 295.937 68.7007 296.296 69.0347C296.661 69.3625 296.93 69.7367 297.103 70.1572C297.282 70.5716 297.372 71.0417 297.372 71.5674C297.372 72.1178 297.261 72.6157 297.038 73.061C296.815 73.5063 296.497 73.8867 296.082 74.2021C295.668 74.5176 295.17 74.7619 294.589 74.9351C294.014 75.1021 293.37 75.1855 292.659 75.1855C292.034 75.1855 291.419 75.099 290.813 74.9258C290.213 74.7526 289.666 74.4928 289.171 74.1465C288.682 73.8001 288.289 73.3734 287.993 72.8662C287.702 72.3529 287.557 71.7591 287.557 71.085H289.338C289.338 71.5488 289.427 71.9478 289.607 72.2817C289.786 72.6095 290.031 72.8817 290.34 73.0981C290.655 73.3146 291.011 73.4754 291.407 73.5806C291.809 73.6795 292.226 73.729 292.659 73.729C293.284 73.729 293.813 73.6424 294.246 73.4692C294.678 73.2961 295.006 73.0487 295.229 72.7271C295.458 72.4054 295.572 72.0251 295.572 71.5859ZM312.245 61.4922V75H310.483V61.4922H312.245ZM316.587 61.4922V62.958H306.15V61.4922H316.587ZM328.112 61.4922V75H326.321V61.4922H328.112ZM349.358 61.4922V75H347.559L340.758 64.5815V75H338.968V61.4922H340.758L347.587 71.9385V61.4922H349.358ZM370.114 68.2739V73.2188C369.947 73.4661 369.681 73.7445 369.316 74.0537C368.951 74.3568 368.447 74.6227 367.804 74.8516C367.167 75.0742 366.344 75.1855 365.336 75.1855C364.513 75.1855 363.756 75.0433 363.063 74.7588C362.376 74.4681 361.78 74.0475 361.272 73.4971C360.771 72.9404 360.382 72.2663 360.104 71.4746C359.831 70.6768 359.695 69.7738 359.695 68.7656V67.7173C359.695 66.7091 359.813 65.8092 360.048 65.0176C360.289 64.2259 360.642 63.5549 361.105 63.0044C361.569 62.4478 362.138 62.0272 362.812 61.7427C363.487 61.452 364.26 61.3066 365.132 61.3066C366.165 61.3066 367.028 61.486 367.72 61.8447C368.419 62.1973 368.963 62.6859 369.353 63.3105C369.749 63.9352 370.002 64.6465 370.114 65.4443H368.323C368.243 64.9557 368.082 64.5104 367.841 64.1084C367.606 63.7064 367.269 63.3848 366.83 63.1436C366.39 62.8962 365.825 62.7725 365.132 62.7725C364.507 62.7725 363.966 62.8869 363.508 63.1157C363.051 63.3446 362.673 63.6724 362.376 64.0991C362.08 64.5259 361.857 65.0423 361.708 65.6484C361.566 66.2546 361.495 66.938 361.495 67.6987V68.7656C361.495 69.5449 361.585 70.2407 361.764 70.853C361.95 71.4653 362.213 71.988 362.553 72.4209C362.893 72.8477 363.298 73.1724 363.768 73.395C364.244 73.6177 364.77 73.729 365.345 73.729C365.982 73.729 366.499 73.6764 366.895 73.5713C367.29 73.46 367.6 73.3301 367.822 73.1816C368.045 73.027 368.215 72.8817 368.333 72.7456V69.7212H365.206V68.2739H370.114Z" fill="white"/>
<line x1="3" y1="52.5" x2="372" y2="52.5" stroke="white"/>
</svg>
