<svg width="240" height="100" viewBox="0 0 240 100" fill="none" xmlns="http://www.w3.org/2000/svg">
<g filter="url(#filter0_i_2_10)">
<path d="M19.0781 72.0938C19.0781 71.6562 19.0104 71.2656 18.875 70.9219C18.75 70.5677 18.5156 70.25 18.1719 69.9688C17.8385 69.6771 17.3646 69.3958 16.75 69.125C16.1458 68.8438 15.3646 68.5521 14.4062 68.25C13.3438 67.9167 12.3542 67.5417 11.4375 67.125C10.5208 66.7083 9.71354 66.224 9.01562 65.6719C8.32812 65.1198 7.79167 64.4844 7.40625 63.7656C7.02083 63.0365 6.82812 62.1927 6.82812 61.2344C6.82812 60.2969 7.02604 59.4427 7.42188 58.6719C7.82812 57.901 8.40104 57.2396 9.14062 56.6875C9.88021 56.125 10.75 55.6927 11.75 55.3906C12.7604 55.0885 13.875 54.9375 15.0938 54.9375C16.7812 54.9375 18.2396 55.2448 19.4688 55.8594C20.7083 56.474 21.6667 57.3073 22.3438 58.3594C23.0208 59.4115 23.3594 60.5938 23.3594 61.9062H19.0781C19.0781 61.1979 18.9271 60.5729 18.625 60.0312C18.3333 59.4896 17.8854 59.0625 17.2812 58.75C16.6875 58.4375 15.9375 58.2812 15.0312 58.2812C14.1562 58.2812 13.4271 58.4115 12.8438 58.6719C12.2708 58.9323 11.8385 59.2865 11.5469 59.7344C11.2656 60.1823 11.125 60.6823 11.125 61.2344C11.125 61.651 11.224 62.026 11.4219 62.3594C11.6198 62.6823 11.9167 62.9896 12.3125 63.2812C12.7083 63.5625 13.1979 63.8281 13.7812 64.0781C14.375 64.3177 15.0625 64.5573 15.8438 64.7969C17.0938 65.1719 18.1875 65.5885 19.125 66.0469C20.0729 66.5052 20.8594 67.026 21.4844 67.6094C22.1198 68.1927 22.5938 68.849 22.9062 69.5781C23.2292 70.3073 23.3906 71.1354 23.3906 72.0625C23.3906 73.0417 23.1979 73.9167 22.8125 74.6875C22.4271 75.4583 21.875 76.1146 21.1562 76.6562C20.4375 77.1979 19.5729 77.6094 18.5625 77.8906C17.5625 78.1719 16.4427 78.3125 15.2031 78.3125C14.099 78.3125 13.0052 78.1667 11.9219 77.875C10.849 77.5729 9.875 77.125 9 76.5312C8.125 75.9271 7.42708 75.1667 6.90625 74.25C6.38542 73.3229 6.125 72.2396 6.125 71H10.4375C10.4375 71.7188 10.5521 72.3333 10.7812 72.8438C11.0208 73.3438 11.3542 73.7552 11.7812 74.0781C12.2188 74.3906 12.7292 74.6198 13.3125 74.7656C13.8958 74.9115 14.526 74.9844 15.2031 74.9844C16.0781 74.9844 16.7969 74.8646 17.3594 74.625C17.9323 74.375 18.3594 74.0312 18.6406 73.5938C18.9323 73.1562 19.0781 72.6562 19.0781 72.0938ZM63.2213 74.625V78H51.1275V74.625H63.2213ZM52.44 55.25V78H48.1431V55.25H52.44ZM61.6431 64.6406V67.9375H51.1275V64.6406H61.6431ZM63.1744 55.25V58.6406H51.1275V55.25H63.1744ZM105.927 55.25V78H101.614L91.9425 62.2188V78H87.6456V55.25H91.9425L101.646 71.0469V55.25H105.927ZM141.07 58.7031L134.586 78H130.039L138.539 55.25H141.445L141.07 58.7031ZM146.492 78L139.976 58.7031L139.586 55.25H142.507L151.054 78H146.492ZM146.195 69.5469V72.9375H133.992V69.5469H146.195ZM192.307 66.2344V75.0938C191.974 75.5208 191.448 75.9844 190.729 76.4844C190.02 76.9844 189.093 77.4167 187.948 77.7812C186.802 78.1354 185.395 78.3125 183.729 78.3125C182.281 78.3125 180.958 78.0729 179.76 77.5938C178.562 77.1042 177.531 76.3906 176.666 75.4531C175.802 74.5156 175.135 73.3698 174.666 72.0156C174.198 70.6615 173.963 69.1146 173.963 67.375V65.875C173.963 64.1354 174.182 62.5885 174.619 61.2344C175.067 59.8802 175.703 58.7344 176.526 57.7969C177.359 56.8594 178.354 56.1458 179.51 55.6562C180.677 55.1667 181.979 54.9219 183.416 54.9219C185.343 54.9219 186.927 55.2396 188.166 55.875C189.416 56.5104 190.375 57.3854 191.041 58.5C191.708 59.6042 192.125 60.875 192.291 62.3125H188.104C187.989 61.5208 187.76 60.8281 187.416 60.2344C187.073 59.6302 186.583 59.1615 185.948 58.8281C185.323 58.4844 184.51 58.3125 183.51 58.3125C182.666 58.3125 181.921 58.4792 181.276 58.8125C180.63 59.1458 180.088 59.6302 179.651 60.2656C179.213 60.901 178.88 61.6875 178.651 62.625C178.432 63.5625 178.323 64.6354 178.323 65.8438V67.375C178.323 68.5938 178.448 69.6771 178.698 70.625C178.948 71.5625 179.307 72.3542 179.776 73C180.255 73.6354 180.843 74.1198 181.541 74.4531C182.25 74.776 183.052 74.9375 183.948 74.9375C184.76 74.9375 185.432 74.8698 185.963 74.7344C186.505 74.5885 186.937 74.4167 187.26 74.2188C187.583 74.0208 187.833 73.8281 188.01 73.6406V69.375H183.494V66.2344H192.307ZM236.231 66.0469V67.2188C236.231 68.9375 236.002 70.4844 235.544 71.8594C235.085 73.224 234.434 74.3854 233.591 75.3438C232.747 76.3021 231.742 77.0365 230.575 77.5469C229.408 78.0573 228.111 78.3125 226.684 78.3125C225.278 78.3125 223.986 78.0573 222.809 77.5469C221.643 77.0365 220.632 76.3021 219.778 75.3438C218.924 74.3854 218.262 73.224 217.794 71.8594C217.325 70.4844 217.091 68.9375 217.091 67.2188V66.0469C217.091 64.3177 217.325 62.7708 217.794 61.4062C218.262 60.0417 218.919 58.8802 219.762 57.9219C220.606 56.9531 221.611 56.2135 222.778 55.7031C223.955 55.1927 225.247 54.9375 226.653 54.9375C228.08 54.9375 229.377 55.1927 230.544 55.7031C231.71 56.2135 232.716 56.9531 233.559 57.9219C234.414 58.8802 235.07 60.0417 235.528 61.4062C235.997 62.7708 236.231 64.3177 236.231 66.0469ZM231.887 67.2188V66.0156C231.887 64.776 231.773 63.6875 231.544 62.75C231.315 61.8021 230.976 61.0052 230.528 60.3594C230.08 59.7135 229.528 59.2292 228.872 58.9062C228.216 58.5729 227.476 58.4062 226.653 58.4062C225.82 58.4062 225.08 58.5729 224.434 58.9062C223.799 59.2292 223.257 59.7135 222.809 60.3594C222.361 61.0052 222.018 61.8021 221.778 62.75C221.549 63.6875 221.434 64.776 221.434 66.0156V67.2188C221.434 68.4479 221.549 69.5365 221.778 70.4844C222.018 71.4323 222.361 72.2344 222.809 72.8906C223.268 73.5365 223.82 74.026 224.466 74.3594C225.111 74.6927 225.851 74.8594 226.684 74.8594C227.518 74.8594 228.257 74.6927 228.903 74.3594C229.549 74.026 230.091 73.5365 230.528 72.8906C230.976 72.2344 231.315 71.4323 231.544 70.4844C231.773 69.5365 231.887 68.4479 231.887 67.2188Z" fill="#E4E4E4"/>
</g>
<rect width="124.23" height="9.39106" transform="matrix(0.960791 -0.277273 0.708807 0.705402 0.561974 35.11)" fill="#D9D9D9"/>
<rect width="124.23" height="9.39048" transform="matrix(0.958186 0.286146 -0.72139 0.692529 120.965 0.494141)" fill="#D9D9D9"/>
<path d="M5.99023 90.4688H8.81445C9.45508 90.4688 9.99609 90.5664 10.4375 90.7617C10.8828 90.957 11.2207 91.2461 11.4512 91.6289C11.6855 92.0078 11.8027 92.4746 11.8027 93.0293C11.8027 93.4199 11.7227 93.7773 11.5625 94.1016C11.4062 94.4219 11.1797 94.6953 10.8828 94.9219C10.5898 95.1445 10.2383 95.3105 9.82812 95.4199L9.51172 95.543H6.85742L6.8457 94.623H8.84961C9.25586 94.623 9.59375 94.5527 9.86328 94.4121C10.1328 94.2676 10.3359 94.0742 10.4727 93.832C10.6094 93.5898 10.6777 93.3223 10.6777 93.0293C10.6777 92.7012 10.6133 92.4141 10.4844 92.168C10.3555 91.9219 10.1523 91.7324 9.875 91.5996C9.60156 91.4629 9.24805 91.3945 8.81445 91.3945H7.12109V99H5.99023V90.4688ZM10.9766 99L8.90234 95.1328L10.0801 95.127L12.1836 98.9297V99H10.9766ZM23.6047 98.0801V99H19.0871V98.0801H23.6047ZM19.3156 90.4688V99H18.1848V90.4688H19.3156ZM23.007 94.1367V95.0566H19.0871V94.1367H23.007ZM23.5461 90.4688V91.3945H19.0871V90.4688H23.5461ZM32.9633 91.2246L30.1391 99H28.9848L32.2367 90.4688H32.9809L32.9633 91.2246ZM35.3305 99L32.5004 91.2246L32.4828 90.4688H33.227L36.4906 99H35.3305ZM35.184 95.8418V96.7676H30.391V95.8418H35.184ZM47.607 98.0801V99H43.3414V98.0801H47.607ZM43.5641 90.4688V99H42.4332V90.4688H43.5641ZM66.8984 98.0801V99H62.3809V98.0801H66.8984ZM62.6094 90.4688V99H61.4785V90.4688H62.6094ZM66.3008 94.1367V95.0566H62.3809V94.1367H66.3008ZM66.8398 90.4688V91.3945H62.3809V90.4688H66.8398ZM77.6457 96.8438C77.6457 96.6445 77.6145 96.4688 77.552 96.3164C77.4934 96.1602 77.3879 96.0195 77.2355 95.8945C77.0871 95.7695 76.8801 95.6504 76.6145 95.5371C76.3527 95.4238 76.0207 95.3086 75.6184 95.1914C75.1965 95.0664 74.8156 94.9277 74.4758 94.7754C74.1359 94.6191 73.8449 94.4414 73.6027 94.2422C73.3605 94.043 73.175 93.8145 73.0461 93.5566C72.9172 93.2988 72.8527 93.0039 72.8527 92.6719C72.8527 92.3398 72.9211 92.0332 73.0578 91.752C73.1945 91.4707 73.3898 91.2266 73.6438 91.0195C73.9016 90.8086 74.2082 90.6445 74.5637 90.5273C74.9191 90.4102 75.3156 90.3516 75.7531 90.3516C76.3938 90.3516 76.9367 90.4746 77.382 90.7207C77.8313 90.9629 78.173 91.2812 78.4074 91.6758C78.6418 92.0664 78.759 92.4844 78.759 92.9297H77.634C77.634 92.6094 77.5656 92.3262 77.4289 92.0801C77.2922 91.8301 77.0852 91.6348 76.8078 91.4941C76.5305 91.3496 76.1789 91.2773 75.7531 91.2773C75.3508 91.2773 75.0188 91.3379 74.757 91.459C74.4953 91.5801 74.3 91.7441 74.1711 91.9512C74.0461 92.1582 73.9836 92.3945 73.9836 92.6602C73.9836 92.8398 74.0207 93.0039 74.0949 93.1523C74.173 93.2969 74.2922 93.4316 74.4523 93.5566C74.6164 93.6816 74.8234 93.7969 75.0734 93.9023C75.3273 94.0078 75.6301 94.1094 75.9816 94.207C76.466 94.3438 76.884 94.4961 77.2355 94.6641C77.5871 94.832 77.8762 95.0215 78.1027 95.2324C78.3332 95.4395 78.5031 95.6758 78.6125 95.9414C78.7258 96.2031 78.7824 96.5 78.7824 96.832C78.7824 97.1797 78.7121 97.4941 78.5715 97.7754C78.4309 98.0566 78.2297 98.2969 77.968 98.4961C77.7063 98.6953 77.3918 98.8496 77.0246 98.959C76.6613 99.0645 76.2551 99.1172 75.8059 99.1172C75.4113 99.1172 75.0227 99.0625 74.6398 98.9531C74.2609 98.8438 73.9152 98.6797 73.6027 98.4609C73.2941 98.2422 73.0461 97.9727 72.8586 97.6523C72.675 97.3281 72.5832 96.9531 72.5832 96.5273H73.7082C73.7082 96.8203 73.7648 97.0723 73.8781 97.2832C73.9914 97.4902 74.1457 97.6621 74.341 97.7988C74.5402 97.9355 74.7648 98.0371 75.0148 98.1035C75.2688 98.166 75.5324 98.1973 75.8059 98.1973C76.2004 98.1973 76.5344 98.1426 76.8078 98.0332C77.0813 97.9238 77.2883 97.7676 77.4289 97.5645C77.5734 97.3613 77.6457 97.1211 77.6457 96.8438ZM88.1762 90.4688V99H87.0629V90.4688H88.1762ZM90.9184 90.4688V91.3945H84.3266V90.4688H90.9184ZM99.6734 91.2246L96.8492 99H95.6949L98.9469 90.4688H99.691L99.6734 91.2246ZM102.041 99L99.2105 91.2246L99.193 90.4688H99.9371L103.201 99H102.041ZM101.894 95.8418V96.7676H97.1012V95.8418H101.894ZM111.534 90.4688V99H110.421V90.4688H111.534ZM114.276 90.4688V91.3945H107.684V90.4688H114.276ZM125.762 98.0801V99H121.244V98.0801H125.762ZM121.473 90.4688V99H120.342V90.4688H121.473ZM125.164 94.1367V95.0566H121.244V94.1367H125.164ZM125.703 90.4688V91.3945H121.244V90.4688H125.703ZM140.952 90.4688V99H139.821V90.4688H140.952ZM154.371 90.4688V99H153.234L148.939 92.4199V99H147.808V90.4688H148.939L153.252 97.0664V90.4688H154.371ZM163.929 97.7051L166.442 90.4688H167.667L164.509 99H163.636L163.929 97.7051ZM161.579 90.4688L164.069 97.7051L164.38 99H163.507L160.354 90.4688H161.579ZM179.035 98.0801V99H174.518V98.0801H179.035ZM174.746 90.4688V99H173.615V90.4688H174.746ZM178.438 94.1367V95.0566H174.518V94.1367H178.438ZM178.977 90.4688V91.3945H174.518V90.4688H178.977ZM189.782 96.8438C189.782 96.6445 189.751 96.4688 189.689 96.3164C189.63 96.1602 189.525 96.0195 189.372 95.8945C189.224 95.7695 189.017 95.6504 188.751 95.5371C188.489 95.4238 188.157 95.3086 187.755 95.1914C187.333 95.0664 186.952 94.9277 186.613 94.7754C186.273 94.6191 185.982 94.4414 185.739 94.2422C185.497 94.043 185.312 93.8145 185.183 93.5566C185.054 93.2988 184.989 93.0039 184.989 92.6719C184.989 92.3398 185.058 92.0332 185.195 91.752C185.331 91.4707 185.527 91.2266 185.78 91.0195C186.038 90.8086 186.345 90.6445 186.7 90.5273C187.056 90.4102 187.452 90.3516 187.89 90.3516C188.53 90.3516 189.073 90.4746 189.519 90.7207C189.968 90.9629 190.31 91.2812 190.544 91.6758C190.779 92.0664 190.896 92.4844 190.896 92.9297H189.771C189.771 92.6094 189.702 92.3262 189.566 92.0801C189.429 91.8301 189.222 91.6348 188.945 91.4941C188.667 91.3496 188.316 91.2773 187.89 91.2773C187.488 91.2773 187.155 91.3379 186.894 91.459C186.632 91.5801 186.437 91.7441 186.308 91.9512C186.183 92.1582 186.12 92.3945 186.12 92.6602C186.12 92.8398 186.157 93.0039 186.232 93.1523C186.31 93.2969 186.429 93.4316 186.589 93.5566C186.753 93.6816 186.96 93.7969 187.21 93.9023C187.464 94.0078 187.767 94.1094 188.118 94.207C188.603 94.3438 189.021 94.4961 189.372 94.6641C189.724 94.832 190.013 95.0215 190.239 95.2324C190.47 95.4395 190.64 95.6758 190.749 95.9414C190.863 96.2031 190.919 96.5 190.919 96.832C190.919 97.1797 190.849 97.4941 190.708 97.7754C190.568 98.0566 190.366 98.2969 190.105 98.4961C189.843 98.6953 189.529 98.8496 189.161 98.959C188.798 99.0645 188.392 99.1172 187.943 99.1172C187.548 99.1172 187.159 99.0625 186.777 98.9531C186.398 98.8438 186.052 98.6797 185.739 98.4609C185.431 98.2422 185.183 97.9727 184.995 97.6523C184.812 97.3281 184.72 96.9531 184.72 96.5273H185.845C185.845 96.8203 185.902 97.0723 186.015 97.2832C186.128 97.4902 186.282 97.6621 186.478 97.7988C186.677 97.9355 186.902 98.0371 187.152 98.1035C187.405 98.166 187.669 98.1973 187.943 98.1973C188.337 98.1973 188.671 98.1426 188.945 98.0332C189.218 97.9238 189.425 97.7676 189.566 97.5645C189.71 97.3613 189.782 97.1211 189.782 96.8438ZM200.313 90.4688V99H199.2V90.4688H200.313ZM203.055 90.4688V91.3945H196.463V90.4688H203.055ZM210.334 90.4688V99H209.203V90.4688H210.334ZM223.753 90.4688V99H222.616L218.321 92.4199V99H217.19V90.4688H218.321L222.634 97.0664V90.4688H223.753ZM236.861 94.752V97.875C236.756 98.0312 236.588 98.207 236.357 98.4023C236.127 98.5938 235.809 98.7617 235.402 98.9062C235 99.0469 234.48 99.1172 233.844 99.1172C233.324 99.1172 232.846 99.0273 232.408 98.8477C231.975 98.6641 231.598 98.3984 231.277 98.0508C230.961 97.6992 230.715 97.2734 230.539 96.7734C230.367 96.2695 230.281 95.6992 230.281 95.0625V94.4004C230.281 93.7637 230.355 93.1953 230.504 92.6953C230.656 92.1953 230.879 91.7715 231.172 91.4238C231.465 91.0723 231.824 90.8066 232.25 90.627C232.676 90.4434 233.164 90.3516 233.715 90.3516C234.367 90.3516 234.912 90.4648 235.35 90.6914C235.791 90.9141 236.135 91.2227 236.381 91.6172C236.631 92.0117 236.791 92.4609 236.861 92.9648H235.73C235.68 92.6562 235.578 92.375 235.426 92.1211C235.277 91.8672 235.064 91.6641 234.787 91.5117C234.51 91.3555 234.152 91.2773 233.715 91.2773C233.32 91.2773 232.979 91.3496 232.689 91.4941C232.4 91.6387 232.162 91.8457 231.975 92.1152C231.787 92.3848 231.646 92.7109 231.553 93.0938C231.463 93.4766 231.418 93.9082 231.418 94.3887V95.0625C231.418 95.5547 231.475 95.9941 231.588 96.3809C231.705 96.7676 231.871 97.0977 232.086 97.3711C232.301 97.6406 232.557 97.8457 232.854 97.9863C233.154 98.127 233.486 98.1973 233.85 98.1973C234.252 98.1973 234.578 98.1641 234.828 98.0977C235.078 98.0273 235.273 97.9453 235.414 97.8516C235.555 97.7539 235.662 97.6621 235.736 97.5762V95.666H233.762V94.752H236.861Z" fill="white"/>
<defs>
<filter id="filter0_i_2_10" x="6.125" y="54.9219" width="230.106" height="27.3906" filterUnits="userSpaceOnUse" color-interpolation-filters="sRGB">
<feFlood flood-opacity="0" result="BackgroundImageFix"/>
<feBlend mode="normal" in="SourceGraphic" in2="BackgroundImageFix" result="shape"/>
<feColorMatrix in="SourceAlpha" type="matrix" values="0 0 0 0 0 0 0 0 0 0 0 0 0 0 0 0 0 0 127 0" result="hardAlpha"/>
<feOffset dy="4"/>
<feGaussianBlur stdDeviation="2"/>
<feComposite in2="hardAlpha" operator="arithmetic" k2="-1" k3="1"/>
<feColorMatrix type="matrix" values="0 0 0 0 0 0 0 0 0 0 0 0 0 0 0 0 0 0 0.25 0"/>
<feBlend mode="normal" in2="shape" result="effect1_innerShadow_2_10"/>
</filter>
</defs>
</svg>
