<svg width="385" height="151" viewBox="0 0 385 151" fill="none" xmlns="http://www.w3.org/2000/svg">
<g filter="url(#filter0_i_2_10)">
<path d="M25.877 107.402C25.877 106.691 25.7669 106.057 25.5469 105.498C25.3438 104.923 24.9629 104.406 24.4043 103.949C23.8626 103.475 23.0924 103.018 22.0938 102.578C21.112 102.121 19.8424 101.647 18.2852 101.156C16.5586 100.615 14.9505 100.005 13.4609 99.3281C11.9714 98.651 10.6595 97.8639 9.52539 96.9668C8.4082 96.0697 7.53646 95.0371 6.91016 93.8691C6.28385 92.6842 5.9707 91.3132 5.9707 89.7559C5.9707 88.2324 6.29232 86.8444 6.93555 85.5918C7.5957 84.3392 8.52669 83.2643 9.72852 82.3672C10.9303 81.4531 12.3438 80.7507 13.9688 80.2598C15.6107 79.7689 17.4219 79.5234 19.4023 79.5234C22.1445 79.5234 24.5143 80.0228 26.5117 81.0215C28.526 82.0202 30.0833 83.3743 31.1836 85.084C32.2839 86.7936 32.834 88.7148 32.834 90.8477H25.877C25.877 89.6966 25.6315 88.681 25.1406 87.8008C24.6667 86.9206 23.9388 86.2266 22.957 85.7188C21.9922 85.2109 20.7734 84.957 19.3008 84.957C17.8789 84.957 16.694 85.1686 15.7461 85.5918C14.8151 86.015 14.1126 86.5905 13.6387 87.3184C13.1816 88.0462 12.9531 88.8587 12.9531 89.7559C12.9531 90.4329 13.1139 91.0423 13.4355 91.584C13.7572 92.1087 14.2396 92.6081 14.8828 93.082C15.526 93.5391 16.3216 93.9707 17.2695 94.377C18.2344 94.7663 19.3516 95.1556 20.6211 95.5449C22.6523 96.1543 24.4297 96.8314 25.9531 97.5762C27.4935 98.321 28.7715 99.1673 29.7871 100.115C30.8197 101.063 31.5898 102.13 32.0977 103.314C32.6224 104.499 32.8848 105.845 32.8848 107.352C32.8848 108.943 32.5716 110.365 31.9453 111.617C31.319 112.87 30.4219 113.936 29.2539 114.816C28.0859 115.697 26.681 116.365 25.0391 116.822C23.4141 117.279 21.5944 117.508 19.5801 117.508C17.7858 117.508 16.0085 117.271 14.248 116.797C12.5046 116.306 10.9219 115.578 9.5 114.613C8.07812 113.632 6.94401 112.396 6.09766 110.906C5.2513 109.4 4.82812 107.639 4.82812 105.625H11.8359C11.8359 106.793 12.0221 107.792 12.3945 108.621C12.7839 109.434 13.3255 110.102 14.0195 110.627C14.7305 111.135 15.5599 111.507 16.5078 111.744C17.4557 111.981 18.4798 112.1 19.5801 112.1C21.002 112.1 22.1699 111.905 23.084 111.516C24.015 111.109 24.709 110.551 25.166 109.84C25.64 109.129 25.877 108.316 25.877 107.402ZM97.6095 111.516V117H77.9572V111.516H97.6095ZM80.09 80.0312V117H73.1076V80.0312H80.09ZM95.0451 95.291V100.648H77.9572V95.291H95.0451ZM97.5334 80.0312V85.541H77.9572V80.0312H97.5334ZM167.006 80.0312V117H159.998L144.282 91.3555V117H137.299V80.0312H144.282L160.049 105.701V80.0312H167.006ZM224.114 85.6426L213.577 117H206.188L220 80.0312H224.723L224.114 85.6426ZM232.924 117L222.336 85.6426L221.702 80.0312H226.45L240.338 117H232.924ZM232.442 103.264V108.773H212.612V103.264H232.442ZM307.374 97.8809V112.277C306.832 112.971 305.977 113.725 304.809 114.537C303.658 115.35 302.152 116.052 300.29 116.645C298.428 117.22 296.143 117.508 293.434 117.508C291.081 117.508 288.932 117.118 286.985 116.34C285.038 115.544 283.363 114.385 281.958 112.861C280.553 111.338 279.469 109.476 278.708 107.275C277.946 105.075 277.565 102.561 277.565 99.7344V97.2969C277.565 94.4701 277.921 91.9564 278.631 89.7559C279.359 87.5553 280.392 85.6934 281.729 84.1699C283.083 82.6465 284.7 81.487 286.579 80.6914C288.475 79.8958 290.59 79.498 292.926 79.498C296.058 79.498 298.631 80.0143 300.645 81.0469C302.676 82.0794 304.234 83.5013 305.317 85.3125C306.4 87.1068 307.077 89.1719 307.348 91.5078H300.544C300.357 90.2214 299.985 89.0957 299.426 88.1309C298.868 87.1491 298.072 86.3874 297.04 85.8457C296.024 85.2871 294.704 85.0078 293.079 85.0078C291.708 85.0078 290.497 85.2786 289.448 85.8203C288.398 86.362 287.518 87.1491 286.807 88.1816C286.096 89.2142 285.555 90.4922 285.182 92.0156C284.827 93.5391 284.649 95.2826 284.649 97.2461V99.7344C284.649 101.715 284.852 103.475 285.258 105.016C285.665 106.539 286.249 107.826 287.01 108.875C287.789 109.908 288.745 110.695 289.88 111.236C291.031 111.761 292.334 112.023 293.79 112.023C295.11 112.023 296.202 111.913 297.065 111.693C297.945 111.456 298.648 111.177 299.172 110.855C299.697 110.534 300.103 110.221 300.391 109.916V102.984H293.053V97.8809H307.374ZM378.751 97.5762V99.4805C378.751 102.273 378.378 104.787 377.634 107.021C376.889 109.239 375.831 111.126 374.46 112.684C373.089 114.241 371.455 115.434 369.559 116.264C367.664 117.093 365.556 117.508 363.237 117.508C360.952 117.508 358.853 117.093 356.94 116.264C355.044 115.434 353.402 114.241 352.014 112.684C350.626 111.126 349.552 109.239 348.79 107.021C348.028 104.787 347.647 102.273 347.647 99.4805V97.5762C347.647 94.7663 348.028 92.2526 348.79 90.0352C349.552 87.8177 350.618 85.9303 351.989 84.373C353.36 82.7988 354.994 81.597 356.889 80.7676C358.802 79.9382 360.901 79.5234 363.186 79.5234C365.505 79.5234 367.613 79.9382 369.509 80.7676C371.404 81.597 373.038 82.7988 374.409 84.373C375.797 85.9303 376.863 87.8177 377.608 90.0352C378.37 92.2526 378.751 94.7663 378.751 97.5762ZM371.692 99.4805V97.5254C371.692 95.5111 371.506 93.7422 371.134 92.2188C370.761 90.6784 370.211 89.3835 369.483 88.334C368.755 87.2845 367.858 86.4974 366.792 85.9727C365.725 85.431 364.524 85.1602 363.186 85.1602C361.832 85.1602 360.63 85.431 359.581 85.9727C358.548 86.4974 357.668 87.2845 356.94 88.334C356.212 89.3835 355.654 90.6784 355.264 92.2188C354.892 93.7422 354.706 95.5111 354.706 97.5254V99.4805C354.706 101.478 354.892 103.247 355.264 104.787C355.654 106.327 356.212 107.631 356.94 108.697C357.685 109.747 358.582 110.542 359.632 111.084C360.681 111.626 361.883 111.896 363.237 111.896C364.591 111.896 365.793 111.626 366.843 111.084C367.892 110.542 368.772 109.747 369.483 108.697C370.211 107.631 370.761 106.327 371.134 104.787C371.506 103.247 371.692 101.478 371.692 99.4805Z" fill="#E4E4E4"/>
</g>
<rect width="199.753" height="15.1002" transform="matrix(0.960791 -0.277273 0.708807 0.705402 0 55.9075)" fill="#D9D9D9"/>
<rect width="199.753" height="15.0992" transform="matrix(0.958186 0.286146 -0.72139 0.692529 193.6 0.247589)" fill="#D9D9D9"/>
<path d="M8.56787 136.492H13.0396C14.0539 136.492 14.9105 136.647 15.6094 136.956C16.3145 137.265 16.8494 137.723 17.2144 138.329C17.5854 138.929 17.771 139.668 17.771 140.546C17.771 141.165 17.6442 141.731 17.3906 142.244C17.1432 142.751 16.7845 143.184 16.3145 143.543C15.8506 143.896 15.2939 144.158 14.6445 144.332L14.1436 144.526H9.94092L9.92236 143.07H13.0952C13.7384 143.07 14.2734 142.958 14.7002 142.736C15.127 142.507 15.4486 142.201 15.665 141.817C15.8815 141.434 15.9897 141.01 15.9897 140.546C15.9897 140.027 15.8877 139.572 15.6836 139.183C15.4795 138.793 15.1579 138.493 14.7188 138.283C14.2858 138.066 13.7261 137.958 13.0396 137.958H10.3584V150H8.56787V136.492ZM16.4629 150L13.1787 143.877L15.0435 143.868L18.374 149.889V150H16.4629ZM36.4574 148.543V150H29.3046V148.543H36.4574ZM29.6664 136.492V150H27.8759V136.492H29.6664ZM35.5111 142.3V143.756H29.3046V142.3H35.5111ZM36.3646 136.492V137.958H29.3046V136.492H36.3646ZM51.2752 137.689L46.8035 150H44.9759L50.1248 136.492H51.303L51.2752 137.689ZM55.0232 150L50.5423 137.689L50.5145 136.492H51.6927L56.8602 150H55.0232ZM54.7913 145V146.465H47.2024V145H54.7913ZM74.4611 148.543V150H67.7072V148.543H74.4611ZM68.0598 136.492V150H66.2692V136.492H68.0598ZM105.006 148.543V150H97.853V148.543H105.006ZM98.2148 136.492V150H96.4243V136.492H98.2148ZM104.06 142.3V143.756H97.853V142.3H104.06ZM104.913 136.492V137.958H97.853V136.492H104.913ZM122.022 146.586C122.022 146.271 121.973 145.992 121.874 145.751C121.781 145.504 121.614 145.281 121.373 145.083C121.138 144.885 120.81 144.696 120.39 144.517C119.975 144.338 119.449 144.155 118.812 143.97C118.144 143.772 117.541 143.552 117.003 143.311C116.465 143.064 116.004 142.782 115.621 142.467C115.238 142.151 114.944 141.79 114.74 141.381C114.536 140.973 114.433 140.506 114.433 139.98C114.433 139.455 114.542 138.969 114.758 138.524C114.975 138.079 115.284 137.692 115.686 137.364C116.094 137.03 116.58 136.771 117.142 136.585C117.705 136.399 118.333 136.307 119.026 136.307C120.04 136.307 120.9 136.501 121.605 136.891C122.316 137.275 122.857 137.779 123.228 138.403C123.6 139.022 123.785 139.684 123.785 140.389H122.004C122.004 139.882 121.896 139.433 121.679 139.043C121.463 138.648 121.135 138.338 120.696 138.116C120.257 137.887 119.7 137.772 119.026 137.772C118.389 137.772 117.863 137.868 117.449 138.06C117.034 138.252 116.725 138.512 116.521 138.839C116.323 139.167 116.224 139.541 116.224 139.962C116.224 140.246 116.283 140.506 116.4 140.741C116.524 140.97 116.713 141.183 116.966 141.381C117.226 141.579 117.554 141.762 117.95 141.929C118.352 142.096 118.831 142.257 119.388 142.411C120.155 142.628 120.816 142.869 121.373 143.135C121.93 143.401 122.387 143.701 122.746 144.035C123.111 144.362 123.38 144.737 123.553 145.157C123.732 145.572 123.822 146.042 123.822 146.567C123.822 147.118 123.711 147.616 123.488 148.061C123.266 148.506 122.947 148.887 122.533 149.202C122.118 149.518 121.62 149.762 121.039 149.935C120.464 150.102 119.821 150.186 119.109 150.186C118.485 150.186 117.869 150.099 117.263 149.926C116.663 149.753 116.116 149.493 115.621 149.146C115.132 148.8 114.74 148.373 114.443 147.866C114.152 147.353 114.007 146.759 114.007 146.085H115.788C115.788 146.549 115.878 146.948 116.057 147.282C116.236 147.61 116.481 147.882 116.79 148.098C117.105 148.315 117.461 148.475 117.857 148.581C118.259 148.68 118.676 148.729 119.109 148.729C119.734 148.729 120.263 148.642 120.696 148.469C121.129 148.296 121.456 148.049 121.679 147.727C121.908 147.405 122.022 147.025 122.022 146.586ZM138.696 136.492V150H136.933V136.492H138.696ZM143.037 136.492V137.958H132.6V136.492H143.037ZM156.9 137.689L152.428 150H150.6L155.749 136.492H156.927L156.9 137.689ZM160.648 150L156.167 137.689L156.139 136.492H157.317L162.485 150H160.648ZM160.416 145V146.465H152.827V145H160.416ZM175.679 136.492V150H173.916V136.492H175.679ZM180.021 136.492V137.958H169.584V136.492H180.021ZM198.206 148.543V150H191.053V148.543H198.206ZM191.415 136.492V150H189.625V136.492H191.415ZM197.26 142.3V143.756H191.053V142.3H197.26ZM198.113 136.492V137.958H191.053V136.492H198.113ZM222.257 136.492V150H220.466V136.492H222.257ZM243.504 136.492V150H241.704L234.904 139.582V150H233.113V136.492H234.904L241.732 146.938V136.492H243.504ZM258.637 147.95L262.617 136.492H264.556L259.555 150H258.173L258.637 147.95ZM254.917 136.492L258.859 147.95L259.351 150H257.969L252.978 136.492H254.917ZM282.556 148.543V150H275.403V148.543H282.556ZM275.765 136.492V150H273.974V136.492H275.765ZM281.609 142.3V143.756H275.403V142.3H281.609ZM282.463 136.492V137.958H275.403V136.492H282.463ZM299.572 146.586C299.572 146.271 299.523 145.992 299.424 145.751C299.331 145.504 299.164 145.281 298.923 145.083C298.688 144.885 298.36 144.696 297.939 144.517C297.525 144.338 296.999 144.155 296.362 143.97C295.694 143.772 295.091 143.552 294.553 143.311C294.015 143.064 293.554 142.782 293.171 142.467C292.787 142.151 292.494 141.79 292.289 141.381C292.085 140.973 291.983 140.506 291.983 139.98C291.983 139.455 292.092 138.969 292.308 138.524C292.524 138.079 292.834 137.692 293.236 137.364C293.644 137.03 294.129 136.771 294.692 136.585C295.255 136.399 295.883 136.307 296.576 136.307C297.59 136.307 298.45 136.501 299.155 136.891C299.866 137.275 300.407 137.779 300.778 138.403C301.149 139.022 301.335 139.684 301.335 140.389H299.554C299.554 139.882 299.445 139.433 299.229 139.043C299.012 138.648 298.685 138.338 298.246 138.116C297.806 137.887 297.25 137.772 296.576 137.772C295.939 137.772 295.413 137.868 294.998 138.06C294.584 138.252 294.275 138.512 294.071 138.839C293.873 139.167 293.774 139.541 293.774 139.962C293.774 140.246 293.833 140.506 293.95 140.741C294.074 140.97 294.262 141.183 294.516 141.381C294.776 141.579 295.104 141.762 295.499 141.929C295.901 142.096 296.381 142.257 296.937 142.411C297.704 142.628 298.366 142.869 298.923 143.135C299.479 143.401 299.937 143.701 300.296 144.035C300.661 144.362 300.93 144.737 301.103 145.157C301.282 145.572 301.372 146.042 301.372 146.567C301.372 147.118 301.261 147.616 301.038 148.061C300.815 148.506 300.497 148.887 300.082 149.202C299.668 149.518 299.17 149.762 298.589 149.935C298.014 150.102 297.37 150.186 296.659 150.186C296.034 150.186 295.419 150.099 294.813 149.926C294.213 149.753 293.666 149.493 293.171 149.146C292.682 148.8 292.289 148.373 291.993 147.866C291.702 147.353 291.557 146.759 291.557 146.085H293.338C293.338 146.549 293.427 146.948 293.607 147.282C293.786 147.61 294.031 147.882 294.34 148.098C294.655 148.315 295.011 148.475 295.407 148.581C295.809 148.68 296.226 148.729 296.659 148.729C297.284 148.729 297.813 148.642 298.246 148.469C298.678 148.296 299.006 148.049 299.229 147.727C299.458 147.405 299.572 147.025 299.572 146.586ZM316.245 136.492V150H314.483V136.492H316.245ZM320.587 136.492V137.958H310.15V136.492H320.587ZM332.112 136.492V150H330.321V136.492H332.112ZM353.358 136.492V150H351.559L344.758 139.582V150H342.968V136.492H344.758L351.587 146.938V136.492H353.358ZM374.114 143.274V148.219C373.947 148.466 373.681 148.744 373.316 149.054C372.951 149.357 372.447 149.623 371.804 149.852C371.167 150.074 370.344 150.186 369.336 150.186C368.513 150.186 367.756 150.043 367.063 149.759C366.376 149.468 365.78 149.048 365.272 148.497C364.771 147.94 364.382 147.266 364.104 146.475C363.831 145.677 363.695 144.774 363.695 143.766V142.717C363.695 141.709 363.813 140.809 364.048 140.018C364.289 139.226 364.642 138.555 365.105 138.004C365.569 137.448 366.138 137.027 366.812 136.743C367.487 136.452 368.26 136.307 369.132 136.307C370.165 136.307 371.028 136.486 371.72 136.845C372.419 137.197 372.963 137.686 373.353 138.311C373.749 138.935 374.002 139.646 374.114 140.444H372.323C372.243 139.956 372.082 139.51 371.841 139.108C371.606 138.706 371.269 138.385 370.83 138.144C370.39 137.896 369.825 137.772 369.132 137.772C368.507 137.772 367.966 137.887 367.508 138.116C367.051 138.345 366.673 138.672 366.376 139.099C366.08 139.526 365.857 140.042 365.708 140.648C365.566 141.255 365.495 141.938 365.495 142.699V143.766C365.495 144.545 365.585 145.241 365.764 145.853C365.95 146.465 366.213 146.988 366.553 147.421C366.893 147.848 367.298 148.172 367.768 148.395C368.244 148.618 368.77 148.729 369.345 148.729C369.982 148.729 370.499 148.676 370.895 148.571C371.29 148.46 371.6 148.33 371.822 148.182C372.045 148.027 372.215 147.882 372.333 147.746V144.721H369.206V143.274H374.114Z" fill="white"/>
<defs>
<filter id="filter0_i_2_10" x="4.82812" y="79.498" width="373.923" height="42.0098" filterUnits="userSpaceOnUse" color-interpolation-filters="sRGB">
<feFlood flood-opacity="0" result="BackgroundImageFix"/>
<feBlend mode="normal" in="SourceGraphic" in2="BackgroundImageFix" result="shape"/>
<feColorMatrix in="SourceAlpha" type="matrix" values="0 0 0 0 0 0 0 0 0 0 0 0 0 0 0 0 0 0 127 0" result="hardAlpha"/>
<feOffset dy="4"/>
<feGaussianBlur stdDeviation="2"/>
<feComposite in2="hardAlpha" operator="arithmetic" k2="-1" k3="1"/>
<feColorMatrix type="matrix" values="0 0 0 0 0 0 0 0 0 0 0 0 0 0 0 0 0 0 0.25 0"/>
<feBlend mode="normal" in2="shape" result="effect1_innerShadow_2_10"/>
</filter>
</defs>
</svg>
