<svg width="383" height="76" viewBox="0 0 383 76" fill="none" xmlns="http://www.w3.org/2000/svg">
<g filter="url(#filter0_dd_2_10)">
<path d="M25.877 28.4023C25.877 27.6914 25.7669 27.0566 25.5469 26.498C25.3438 25.9225 24.9629 25.4062 24.4043 24.9492C23.8626 24.4753 23.0924 24.0182 22.0938 23.5781C21.112 23.1211 19.8424 22.6471 18.2852 22.1562C16.5586 21.6146 14.9505 21.0052 13.4609 20.3281C11.9714 19.651 10.6595 18.8639 9.52539 17.9668C8.4082 17.0697 7.53646 16.0371 6.91016 14.8691C6.28385 13.6842 5.9707 12.3132 5.9707 10.7559C5.9707 9.23242 6.29232 7.8444 6.93555 6.5918C7.5957 5.33919 8.52669 4.26432 9.72852 3.36719C10.9303 2.45312 12.3438 1.75065 13.9688 1.25977C15.6107 0.76888 17.4219 0.523438 19.4023 0.523438C22.1445 0.523438 24.5143 1.02279 26.5117 2.02148C28.526 3.02018 30.0833 4.37435 31.1836 6.08398C32.2839 7.79362 32.834 9.71484 32.834 11.8477H25.877C25.877 10.6966 25.6315 9.68099 25.1406 8.80078C24.6667 7.92057 23.9388 7.22656 22.957 6.71875C21.9922 6.21094 20.7734 5.95703 19.3008 5.95703C17.8789 5.95703 16.694 6.16862 15.7461 6.5918C14.8151 7.01497 14.1126 7.59049 13.6387 8.31836C13.1816 9.04622 12.9531 9.85872 12.9531 10.7559C12.9531 11.4329 13.1139 12.0423 13.4355 12.584C13.7572 13.1087 14.2396 13.6081 14.8828 14.082C15.526 14.5391 16.3216 14.9707 17.2695 15.377C18.2344 15.7663 19.3516 16.1556 20.6211 16.5449C22.6523 17.1543 24.4297 17.8314 25.9531 18.5762C27.4935 19.321 28.7715 20.1673 29.7871 21.1152C30.8197 22.0632 31.5898 23.1296 32.0977 24.3145C32.6224 25.4993 32.8848 26.8451 32.8848 28.3516C32.8848 29.9427 32.5716 31.3646 31.9453 32.6172C31.319 33.8698 30.4219 34.9362 29.2539 35.8164C28.0859 36.6966 26.681 37.3652 25.0391 37.8223C23.4141 38.2793 21.5944 38.5078 19.5801 38.5078C17.7858 38.5078 16.0085 38.2708 14.248 37.7969C12.5046 37.306 10.9219 36.5781 9.5 35.6133C8.07812 34.6315 6.94401 33.3958 6.09766 31.9062C5.2513 30.3997 4.82812 28.6393 4.82812 26.625H11.8359C11.8359 27.793 12.0221 28.7917 12.3945 29.6211C12.7839 30.4336 13.3255 31.1022 14.0195 31.627C14.7305 32.1348 15.5599 32.5072 16.5078 32.7441C17.4557 32.9811 18.4798 33.0996 19.5801 33.0996C21.002 33.0996 22.1699 32.9049 23.084 32.5156C24.015 32.1094 24.709 31.5508 25.166 30.8398C25.64 30.1289 25.877 29.3164 25.877 28.4023ZM97.6095 32.5156V38H77.9572V32.5156H97.6095ZM80.09 1.03125V38H73.1076V1.03125H80.09ZM95.0451 16.291V21.6484H77.9572V16.291H95.0451ZM97.5334 1.03125V6.54102H77.9572V1.03125H97.5334ZM167.006 1.03125V38H159.998L144.282 12.3555V38H137.299V1.03125H144.282L160.049 26.7012V1.03125H167.006ZM224.114 6.64258L213.577 38H206.188L220 1.03125H224.723L224.114 6.64258ZM232.924 38L222.336 6.64258L221.702 1.03125H226.45L240.338 38H232.924ZM232.442 24.2637V29.7734H212.612V24.2637H232.442ZM307.374 18.8809V33.2773C306.832 33.9714 305.977 34.7246 304.809 35.5371C303.658 36.3496 302.152 37.0521 300.29 37.6445C298.428 38.2201 296.143 38.5078 293.434 38.5078C291.081 38.5078 288.932 38.1185 286.985 37.3398C285.038 36.5443 283.363 35.3848 281.958 33.8613C280.553 32.3379 279.469 30.4759 278.708 28.2754C277.946 26.0749 277.565 23.5612 277.565 20.7344V18.2969C277.565 15.4701 277.921 12.9564 278.631 10.7559C279.359 8.55534 280.392 6.69336 281.729 5.16992C283.083 3.64648 284.7 2.48698 286.579 1.69141C288.475 0.895833 290.59 0.498047 292.926 0.498047C296.058 0.498047 298.631 1.01432 300.645 2.04688C302.676 3.07943 304.234 4.5013 305.317 6.3125C306.4 8.10677 307.077 10.1719 307.348 12.5078H300.544C300.357 11.2214 299.985 10.0957 299.426 9.13086C298.868 8.14909 298.072 7.38737 297.04 6.8457C296.024 6.28711 294.704 6.00781 293.079 6.00781C291.708 6.00781 290.497 6.27865 289.448 6.82031C288.398 7.36198 287.518 8.14909 286.807 9.18164C286.096 10.2142 285.555 11.4922 285.182 13.0156C284.827 14.5391 284.649 16.2826 284.649 18.2461V20.7344C284.649 22.7148 284.852 24.4753 285.258 26.0156C285.665 27.5391 286.249 28.8255 287.01 29.875C287.789 30.9076 288.745 31.6947 289.88 32.2363C291.031 32.7611 292.334 33.0234 293.79 33.0234C295.11 33.0234 296.202 32.9134 297.065 32.6934C297.945 32.4564 298.648 32.1771 299.172 31.8555C299.697 31.5339 300.103 31.2207 300.391 30.916V23.9844H293.053V18.8809H307.374ZM378.751 18.5762V20.4805C378.751 23.2734 378.378 25.7871 377.634 28.0215C376.889 30.2389 375.831 32.1263 374.46 33.6836C373.089 35.2409 371.455 36.4342 369.559 37.2637C367.664 38.0931 365.556 38.5078 363.237 38.5078C360.952 38.5078 358.853 38.0931 356.94 37.2637C355.044 36.4342 353.402 35.2409 352.014 33.6836C350.626 32.1263 349.552 30.2389 348.79 28.0215C348.028 25.7871 347.647 23.2734 347.647 20.4805V18.5762C347.647 15.7663 348.028 13.2526 348.79 11.0352C349.552 8.81771 350.618 6.93034 351.989 5.37305C353.36 3.79883 354.994 2.59701 356.889 1.76758C358.802 0.938151 360.901 0.523438 363.186 0.523438C365.505 0.523438 367.613 0.938151 369.509 1.76758C371.404 2.59701 373.038 3.79883 374.409 5.37305C375.797 6.93034 376.863 8.81771 377.608 11.0352C378.37 13.2526 378.751 15.7663 378.751 18.5762ZM371.692 20.4805V18.5254C371.692 16.5111 371.506 14.7422 371.134 13.2188C370.761 11.6784 370.211 10.3835 369.483 9.33398C368.755 8.28451 367.858 7.4974 366.792 6.97266C365.725 6.43099 364.524 6.16016 363.186 6.16016C361.832 6.16016 360.63 6.43099 359.581 6.97266C358.548 7.4974 357.668 8.28451 356.94 9.33398C356.212 10.3835 355.654 11.6784 355.264 13.2188C354.892 14.7422 354.706 16.5111 354.706 18.5254V20.4805C354.706 22.4779 354.892 24.2467 355.264 25.7871C355.654 27.3275 356.212 28.6309 356.94 29.6973C357.685 30.7467 358.582 31.5423 359.632 32.084C360.681 32.6257 361.883 32.8965 363.237 32.8965C364.591 32.8965 365.793 32.6257 366.843 32.084C367.892 31.5423 368.772 30.7467 369.483 29.6973C370.211 28.6309 370.761 27.3275 371.134 25.7871C371.506 24.2467 371.692 22.4779 371.692 20.4805Z" fill="#E4E4E4"/>
</g>
<path d="M8.56787 61.4922H13.0396C14.0539 61.4922 14.9105 61.6468 15.6094 61.9561C16.3145 62.2653 16.8494 62.723 17.2144 63.3291C17.5854 63.929 17.771 64.6681 17.771 65.5464C17.771 66.1649 17.6442 66.7308 17.3906 67.2441C17.1432 67.7513 16.7845 68.1842 16.3145 68.543C15.8506 68.8955 15.2939 69.1584 14.6445 69.3315L14.1436 69.5264H9.94092L9.92236 68.0698H13.0952C13.7384 68.0698 14.2734 67.9585 14.7002 67.7358C15.127 67.507 15.4486 67.2008 15.665 66.8174C15.8815 66.4339 15.9897 66.0103 15.9897 65.5464C15.9897 65.0269 15.8877 64.5723 15.6836 64.1826C15.4795 63.793 15.1579 63.493 14.7188 63.2827C14.2858 63.0662 13.7261 62.958 13.0396 62.958H10.3584V75H8.56787V61.4922ZM16.4629 75L13.1787 68.877L15.0435 68.8677L18.374 74.8887V75H16.4629ZM36.4574 73.5435V75H29.3046V73.5435H36.4574ZM29.6664 61.4922V75H27.8759V61.4922H29.6664ZM35.5111 67.2998V68.7563H29.3046V67.2998H35.5111ZM36.3646 61.4922V62.958H29.3046V61.4922H36.3646ZM51.2752 62.689L46.8035 75H44.9759L50.1248 61.4922H51.303L51.2752 62.689ZM55.0232 75L50.5423 62.689L50.5145 61.4922H51.6927L56.8602 75H55.0232ZM54.7913 69.9995V71.4653H47.2024V69.9995H54.7913ZM74.4611 73.5435V75H67.7072V73.5435H74.4611ZM68.0598 61.4922V75H66.2692V61.4922H68.0598ZM105.006 73.5435V75H97.853V73.5435H105.006ZM98.2148 61.4922V75H96.4243V61.4922H98.2148ZM104.06 67.2998V68.7563H97.853V67.2998H104.06ZM104.913 61.4922V62.958H97.853V61.4922H104.913ZM122.022 71.5859C122.022 71.2705 121.973 70.9922 121.874 70.751C121.781 70.5036 121.614 70.2809 121.373 70.083C121.138 69.8851 120.81 69.6965 120.39 69.5171C119.975 69.3377 119.449 69.1553 118.812 68.9697C118.144 68.7718 117.541 68.5522 117.003 68.311C116.465 68.0636 116.004 67.7822 115.621 67.4668C115.238 67.1514 114.944 66.7896 114.74 66.3813C114.536 65.9731 114.433 65.5062 114.433 64.9805C114.433 64.4548 114.542 63.9692 114.758 63.5239C114.975 63.0786 115.284 62.6921 115.686 62.3643C116.094 62.0303 116.58 61.7705 117.142 61.585C117.705 61.3994 118.333 61.3066 119.026 61.3066C120.04 61.3066 120.9 61.5015 121.605 61.8911C122.316 62.2746 122.857 62.7786 123.228 63.4033C123.6 64.0218 123.785 64.6836 123.785 65.3887H122.004C122.004 64.8815 121.896 64.4331 121.679 64.0435C121.463 63.6476 121.135 63.3384 120.696 63.1157C120.257 62.8869 119.7 62.7725 119.026 62.7725C118.389 62.7725 117.863 62.8683 117.449 63.0601C117.034 63.2518 116.725 63.5116 116.521 63.8394C116.323 64.1672 116.224 64.5413 116.224 64.9619C116.224 65.2464 116.283 65.5062 116.4 65.7412C116.524 65.9701 116.713 66.1834 116.966 66.3813C117.226 66.5793 117.554 66.7617 117.95 66.9287C118.352 67.0957 118.831 67.2565 119.388 67.4111C120.155 67.6276 120.816 67.8688 121.373 68.1348C121.93 68.4007 122.387 68.7007 122.746 69.0347C123.111 69.3625 123.38 69.7367 123.553 70.1572C123.732 70.5716 123.822 71.0417 123.822 71.5674C123.822 72.1178 123.711 72.6157 123.488 73.061C123.266 73.5063 122.947 73.8867 122.533 74.2021C122.118 74.5176 121.62 74.7619 121.039 74.9351C120.464 75.1021 119.821 75.1855 119.109 75.1855C118.485 75.1855 117.869 75.099 117.263 74.9258C116.663 74.7526 116.116 74.4928 115.621 74.1465C115.132 73.8001 114.74 73.3734 114.443 72.8662C114.152 72.3529 114.007 71.7591 114.007 71.085H115.788C115.788 71.5488 115.878 71.9478 116.057 72.2817C116.236 72.6095 116.481 72.8817 116.79 73.0981C117.105 73.3146 117.461 73.4754 117.857 73.5806C118.259 73.6795 118.676 73.729 119.109 73.729C119.734 73.729 120.263 73.6424 120.696 73.4692C121.129 73.2961 121.456 73.0487 121.679 72.7271C121.908 72.4054 122.022 72.0251 122.022 71.5859ZM138.696 61.4922V75H136.933V61.4922H138.696ZM143.037 61.4922V62.958H132.6V61.4922H143.037ZM156.9 62.689L152.428 75H150.6L155.749 61.4922H156.927L156.9 62.689ZM160.648 75L156.167 62.689L156.139 61.4922H157.317L162.485 75H160.648ZM160.416 69.9995V71.4653H152.827V69.9995H160.416ZM175.679 61.4922V75H173.916V61.4922H175.679ZM180.021 61.4922V62.958H169.584V61.4922H180.021ZM198.206 73.5435V75H191.053V73.5435H198.206ZM191.415 61.4922V75H189.625V61.4922H191.415ZM197.26 67.2998V68.7563H191.053V67.2998H197.26ZM198.113 61.4922V62.958H191.053V61.4922H198.113ZM222.257 61.4922V75H220.466V61.4922H222.257ZM243.504 61.4922V75H241.704L234.904 64.5815V75H233.113V61.4922H234.904L241.732 71.9385V61.4922H243.504ZM258.637 72.9497L262.617 61.4922H264.556L259.555 75H258.173L258.637 72.9497ZM254.917 61.4922L258.859 72.9497L259.351 75H257.969L252.978 61.4922H254.917ZM282.556 73.5435V75H275.403V73.5435H282.556ZM275.765 61.4922V75H273.974V61.4922H275.765ZM281.609 67.2998V68.7563H275.403V67.2998H281.609ZM282.463 61.4922V62.958H275.403V61.4922H282.463ZM299.572 71.5859C299.572 71.2705 299.523 70.9922 299.424 70.751C299.331 70.5036 299.164 70.2809 298.923 70.083C298.688 69.8851 298.36 69.6965 297.939 69.5171C297.525 69.3377 296.999 69.1553 296.362 68.9697C295.694 68.7718 295.091 68.5522 294.553 68.311C294.015 68.0636 293.554 67.7822 293.171 67.4668C292.787 67.1514 292.494 66.7896 292.289 66.3813C292.085 65.9731 291.983 65.5062 291.983 64.9805C291.983 64.4548 292.092 63.9692 292.308 63.5239C292.524 63.0786 292.834 62.6921 293.236 62.3643C293.644 62.0303 294.129 61.7705 294.692 61.585C295.255 61.3994 295.883 61.3066 296.576 61.3066C297.59 61.3066 298.45 61.5015 299.155 61.8911C299.866 62.2746 300.407 62.7786 300.778 63.4033C301.149 64.0218 301.335 64.6836 301.335 65.3887H299.554C299.554 64.8815 299.445 64.4331 299.229 64.0435C299.012 63.6476 298.685 63.3384 298.246 63.1157C297.806 62.8869 297.25 62.7725 296.576 62.7725C295.939 62.7725 295.413 62.8683 294.998 63.0601C294.584 63.2518 294.275 63.5116 294.071 63.8394C293.873 64.1672 293.774 64.5413 293.774 64.9619C293.774 65.2464 293.833 65.5062 293.95 65.7412C294.074 65.9701 294.262 66.1834 294.516 66.3813C294.776 66.5793 295.104 66.7617 295.499 66.9287C295.901 67.0957 296.381 67.2565 296.937 67.4111C297.704 67.6276 298.366 67.8688 298.923 68.1348C299.479 68.4007 299.937 68.7007 300.296 69.0347C300.661 69.3625 300.93 69.7367 301.103 70.1572C301.282 70.5716 301.372 71.0417 301.372 71.5674C301.372 72.1178 301.261 72.6157 301.038 73.061C300.815 73.5063 300.497 73.8867 300.082 74.2021C299.668 74.5176 299.17 74.7619 298.589 74.9351C298.014 75.1021 297.37 75.1855 296.659 75.1855C296.034 75.1855 295.419 75.099 294.813 74.9258C294.213 74.7526 293.666 74.4928 293.171 74.1465C292.682 73.8001 292.289 73.3734 291.993 72.8662C291.702 72.3529 291.557 71.7591 291.557 71.085H293.338C293.338 71.5488 293.427 71.9478 293.607 72.2817C293.786 72.6095 294.031 72.8817 294.34 73.0981C294.655 73.3146 295.011 73.4754 295.407 73.5806C295.809 73.6795 296.226 73.729 296.659 73.729C297.284 73.729 297.813 73.6424 298.246 73.4692C298.678 73.2961 299.006 73.0487 299.229 72.7271C299.458 72.4054 299.572 72.0251 299.572 71.5859ZM316.245 61.4922V75H314.483V61.4922H316.245ZM320.587 61.4922V62.958H310.15V61.4922H320.587ZM332.112 61.4922V75H330.321V61.4922H332.112ZM353.358 61.4922V75H351.559L344.758 64.5815V75H342.968V61.4922H344.758L351.587 71.9385V61.4922H353.358ZM374.114 68.2739V73.2188C373.947 73.4661 373.681 73.7445 373.316 74.0537C372.951 74.3568 372.447 74.6227 371.804 74.8516C371.167 75.0742 370.344 75.1855 369.336 75.1855C368.513 75.1855 367.756 75.0433 367.063 74.7588C366.376 74.4681 365.78 74.0475 365.272 73.4971C364.771 72.9404 364.382 72.2663 364.104 71.4746C363.831 70.6768 363.695 69.7738 363.695 68.7656V67.7173C363.695 66.7091 363.813 65.8092 364.048 65.0176C364.289 64.2259 364.642 63.5549 365.105 63.0044C365.569 62.4478 366.138 62.0272 366.812 61.7427C367.487 61.452 368.26 61.3066 369.132 61.3066C370.165 61.3066 371.028 61.486 371.72 61.8447C372.419 62.1973 372.963 62.6859 373.353 63.3105C373.749 63.9352 374.002 64.6465 374.114 65.4443H372.323C372.243 64.9557 372.082 64.5104 371.841 64.1084C371.606 63.7064 371.269 63.3848 370.83 63.1436C370.39 62.8962 369.825 62.7725 369.132 62.7725C368.507 62.7725 367.966 62.8869 367.508 63.1157C367.051 63.3446 366.673 63.6724 366.376 64.0991C366.08 64.5259 365.857 65.0423 365.708 65.6484C365.566 66.2546 365.495 66.938 365.495 67.6987V68.7656C365.495 69.5449 365.585 70.2407 365.764 70.853C365.95 71.4653 366.213 71.988 366.553 72.4209C366.893 72.8477 367.298 73.1724 367.768 73.395C368.244 73.6177 368.77 73.729 369.345 73.729C369.982 73.729 370.499 73.6764 370.895 73.5713C371.29 73.46 371.6 73.3301 371.822 73.1816C372.045 73.027 372.215 72.8817 372.333 72.7456V69.7212H369.206V68.2739H374.114Z" fill="white"/>
<line x1="7" y1="52.5" x2="376" y2="52.5" stroke="white"/>
<defs>
<filter id="filter0_dd_2_10" x="0.828125" y="0.498047" width="381.923" height="46.0098" filterUnits="userSpaceOnUse" color-interpolation-filters="sRGB">
<feFlood flood-opacity="0" result="BackgroundImageFix"/>
<feColorMatrix in="SourceAlpha" type="matrix" values="0 0 0 0 0 0 0 0 0 0 0 0 0 0 0 0 0 0 127 0" result="hardAlpha"/>
<feOffset dy="4"/>
<feGaussianBlur stdDeviation="2"/>
<feComposite in2="hardAlpha" operator="out"/>
<feColorMatrix type="matrix" values="0 0 0 0 0.98 0 0 0 0 1 0 0 0 0 0 0 0 0 0.25 0"/>
<feBlend mode="normal" in2="BackgroundImageFix" result="effect1_dropShadow_2_10"/>
<feColorMatrix in="SourceAlpha" type="matrix" values="0 0 0 0 0 0 0 0 0 0 0 0 0 0 0 0 0 0 127 0" result="hardAlpha"/>
<feOffset dy="4"/>
<feGaussianBlur stdDeviation="2"/>
<feComposite in2="hardAlpha" operator="out"/>
<feColorMatrix type="matrix" values="0 0 0 0 0 0 0 0 0 0 0 0 0 0 0 0 0 0 0.25 0"/>
<feBlend mode="normal" in2="effect1_dropShadow_2_10" result="effect2_dropShadow_2_10"/>
<feBlend mode="normal" in="SourceGraphic" in2="effect2_dropShadow_2_10" result="shape"/>
</filter>
</defs>
</svg>
